<svg width="121" height="42" viewBox="0 0 121 42" fill="none" xmlns="http://www.w3.org/2000/svg">
<path d="M2.57626 32V8.71875H7.82997L12.9091 22.0732C13.052 22.4676 13.2145 22.969 13.3967 23.5774C13.5789 24.1858 13.7692 24.8442 13.9675 25.5524C14.1658 26.2606 14.3545 26.9583 14.5334 27.6453C14.7124 28.3324 14.8668 28.9527 14.9966 29.5063H14.2475C14.3858 28.9783 14.544 28.3751 14.722 27.6966C14.9 27.018 15.0882 26.3225 15.2866 25.61C15.4849 24.8975 15.6768 24.2307 15.8623 23.6094C16.0479 22.9882 16.2121 22.4761 16.355 22.0732L21.3644 8.71875H26.6337V32H23.0903V19.4765C23.0903 18.988 23.0948 18.4125 23.1038 17.7501C23.1127 17.0877 23.1264 16.3842 23.1448 15.6397C23.1633 14.8951 23.1813 14.141 23.1988 13.3775C23.2163 12.6139 23.2293 11.8825 23.2378 11.1831H23.5075C23.2944 11.9506 23.0659 12.7358 22.822 13.5387C22.5782 14.3417 22.3377 15.1185 22.1005 15.8694C21.8633 16.6202 21.6386 17.3069 21.4266 17.9295C21.2145 18.5521 21.0336 19.0678 20.8841 19.4765L16.1309 32H13.0719L8.24623 19.4765C8.09665 19.0763 7.91962 18.5713 7.71514 17.9615C7.51066 17.3517 7.28889 16.6757 7.04983 15.9334C6.81077 15.1911 6.56671 14.4143 6.31764 13.6028C6.06858 12.7913 5.81947 11.9848 5.5703 11.1831H5.88248C5.89957 11.8227 5.91686 12.5157 5.93436 13.2622C5.95186 14.0086 5.96769 14.7606 5.98186 15.5179C5.99603 16.2753 6.00972 16.9959 6.02295 17.6797C6.03618 18.3634 6.0428 18.9624 6.0428 19.4765V32H2.57626ZM28.3988 32L36.6888 8.71875H41.06L49.4903 32H45.6397L41.1044 19.0481C40.7517 17.9952 40.3649 16.7557 39.9442 15.3297C39.5235 13.9036 39.037 12.1917 38.4847 10.1937H39.2047C38.6647 12.2087 38.1857 13.9378 37.7676 15.3809C37.3496 16.824 36.9789 18.0464 36.6556 19.0481L32.2581 32H28.3988ZM32.8906 25.8656V22.8894H44.9984V25.8656H32.8906ZM54.8375 8.71875V32H51.2669V8.71875H54.8375ZM66.2016 32.3838C64.4626 32.3838 62.9516 32.1078 61.6684 31.5558C60.3853 31.0038 59.3826 30.216 58.6603 29.1923C57.938 28.1687 57.5375 26.9477 57.4588 25.5294H61.0372C61.113 26.3744 61.3888 27.0737 61.8645 27.6274C62.3403 28.181 62.9569 28.5935 63.7144 28.8649C64.4719 29.1362 65.2953 29.2719 66.1847 29.2719C67.1693 29.2719 68.0466 29.116 68.8167 28.8041C69.5868 28.4922 70.1937 28.0533 70.6374 27.4874C71.081 26.9214 71.3028 26.2664 71.3028 25.5222C71.3028 24.8434 71.1097 24.288 70.7234 23.8558C70.3372 23.4236 69.812 23.064 69.1478 22.7769C68.4837 22.4898 67.7321 22.2363 66.8931 22.0166L64.165 21.2731C62.2581 20.7587 60.7712 20.0007 59.7042 18.9989C58.6372 17.9971 58.1038 16.7001 58.1038 15.1078C58.1038 13.7653 58.4664 12.5906 59.1916 11.5837C59.9168 10.5769 60.9018 9.79557 62.1467 9.23984C63.3916 8.68411 64.795 8.40625 66.3569 8.40625C67.9519 8.40625 69.3553 8.68505 70.567 9.24265C71.7788 9.80026 72.7314 10.564 73.425 11.5337C74.1185 12.5035 74.4833 13.6079 74.5194 14.8469H71.045C70.9246 13.7789 70.4303 12.9529 69.562 12.3687C68.6938 11.7846 67.5998 11.4925 66.28 11.4925C65.3437 11.4925 64.5285 11.6406 63.8342 11.9369C63.1399 12.2331 62.6042 12.6384 62.2269 13.1526C61.8496 13.6669 61.6609 14.254 61.6609 14.9137C61.6609 15.6456 61.8873 16.2393 62.34 16.6947C62.7927 17.1501 63.3448 17.5093 63.9962 17.7722C64.6477 18.0351 65.2697 18.2447 65.8622 18.4009L68.1144 18.9994C68.8575 19.1848 69.6217 19.4374 70.4069 19.7572C71.1921 20.077 71.9195 20.4894 72.5892 20.9944C73.2589 21.4994 73.8001 22.1247 74.2128 22.8705C74.6255 23.6162 74.8319 24.5129 74.8319 25.5606C74.8319 26.8783 74.4927 28.0518 73.8144 29.0811C73.136 30.1104 72.1535 30.9181 70.8669 31.5044C69.5802 32.0906 68.0251 32.3838 66.2016 32.3838ZM87.1594 32.3125C85.1473 32.3125 83.3485 31.8349 81.7631 30.8798C80.1777 29.9247 78.9277 28.5549 78.0131 26.7703C77.0985 24.9857 76.6413 22.854 76.6413 20.375C76.6413 17.8838 77.0985 15.7454 78.0131 13.9598C78.9277 12.1743 80.1777 10.8023 81.7631 9.84391C83.3485 8.88547 85.1473 8.40625 87.1594 8.40625C89.1715 8.40625 90.9676 8.88547 92.5478 9.84391C94.128 10.8023 95.3737 12.1743 96.285 13.9598C97.1962 15.7454 97.6519 17.8838 97.6519 20.375C97.6519 22.8558 97.1962 24.9885 96.285 26.7731C95.3737 28.5577 94.128 29.9271 92.5478 30.8812C90.9676 31.8354 89.1715 32.3125 87.1594 32.3125ZM87.1594 29.0675C88.4848 29.0675 89.6708 28.7347 90.7175 28.0691C91.7642 27.4035 92.5915 26.4228 93.1995 25.127C93.8076 23.8313 94.1116 22.2473 94.1116 20.375C94.1116 18.4837 93.8076 16.8898 93.1995 15.5931C92.5915 14.2964 91.7642 13.3153 90.7175 12.6497C89.6708 11.984 88.4848 11.6512 87.1594 11.6512C85.8273 11.6512 84.6358 11.9862 83.5848 12.6561C82.5339 13.326 81.7039 14.3093 81.095 15.6059C80.486 16.9026 80.1815 18.4923 80.1815 20.375C80.1815 22.2473 80.486 23.8292 81.095 25.1206C81.7039 26.4121 82.5339 27.3928 83.5848 28.0627C84.6358 28.7326 85.8273 29.0675 87.1594 29.0675ZM100.389 32V8.71875H104.496L113.259 22.5744C113.55 23.033 113.879 23.5812 114.244 24.2191C114.609 24.857 114.996 25.5735 115.404 26.3686C115.811 27.1637 116.214 28.0301 116.612 28.9678H116.168C116.081 28.0814 116.014 27.203 115.966 26.3328C115.918 25.4626 115.884 24.6486 115.864 23.8908C115.844 23.133 115.834 22.4911 115.834 21.965V8.71875H119.438V32H115.305L107.456 19.605C107.035 18.9266 106.624 18.2451 106.224 17.5603C105.824 16.8755 105.382 16.0836 104.898 15.1845C104.414 14.2854 103.821 13.1872 103.119 11.8897H103.685C103.743 13.0347 103.796 14.1061 103.844 15.104C103.892 16.102 103.931 16.9833 103.961 17.7481C103.991 18.5129 104.006 19.1233 104.006 19.5793V32H100.389Z" fill="#162839"/>
</svg>
