<svg width="1280" height="470" viewBox="0 0 1280 470" fill="none" xmlns="http://www.w3.org/2000/svg">
<mask id="path-1-inside-1_1_2582" fill="white">
<path d="M0 0H1280V469.41H0V0Z"/>
</mask>
<path d="M0 0H1280V469.41H0V0Z" fill="#E9E1D6"/>
<path d="M0 0V1H1280V0V-1H0V0Z" fill="#C4C6CD" mask="url(#path-1-inside-1_1_2582)"/>
<path d="M33.9176 105.545H37.1136L42.6705 119.114H42.875L48.4318 105.545H51.6278V123H49.1222V110.369H48.9602L43.8125 122.974H41.733L36.5852 110.361H36.4233V123H33.9176V105.545ZM56.9311 123H54.1357L60.4169 105.545H63.4595L69.7408 123H66.9453L62.0107 108.716H61.8743L56.9311 123ZM57.3999 116.165H66.468V118.381H57.3999V116.165ZM74.8949 105.545V123H72.2614V105.545H74.8949ZM88.25 110.131C88.1591 109.324 87.7841 108.699 87.125 108.256C86.4659 107.807 85.6364 107.582 84.6364 107.582C83.9205 107.582 83.3011 107.696 82.7784 107.923C82.2557 108.145 81.8494 108.452 81.5597 108.844C81.2756 109.23 81.1335 109.67 81.1335 110.165C81.1335 110.58 81.2301 110.937 81.4233 111.239C81.6222 111.54 81.8807 111.793 82.1989 111.997C82.5227 112.196 82.8693 112.364 83.2386 112.5C83.608 112.631 83.9631 112.739 84.304 112.824L86.0085 113.267C86.5653 113.403 87.1364 113.588 87.7216 113.821C88.3068 114.054 88.8494 114.361 89.3494 114.741C89.8494 115.122 90.2528 115.594 90.5597 116.156C90.8722 116.719 91.0284 117.392 91.0284 118.176C91.0284 119.165 90.7727 120.043 90.2614 120.81C89.7557 121.577 89.0199 122.182 88.054 122.625C87.0938 123.068 85.9318 123.29 84.5682 123.29C83.2614 123.29 82.1307 123.082 81.1761 122.668C80.2216 122.253 79.4744 121.665 78.9347 120.903C78.3949 120.136 78.0966 119.227 78.0398 118.176H80.6818C80.733 118.807 80.9375 119.332 81.2955 119.753C81.6591 120.168 82.1222 120.477 82.6847 120.682C83.2528 120.881 83.875 120.98 84.5511 120.98C85.2955 120.98 85.9574 120.864 86.5369 120.631C87.1222 120.392 87.5824 120.062 87.9176 119.642C88.2528 119.216 88.4205 118.719 88.4205 118.151C88.4205 117.634 88.2727 117.21 87.9773 116.881C87.6875 116.551 87.2926 116.278 86.7926 116.062C86.2983 115.847 85.7386 115.656 85.1136 115.491L83.0511 114.929C81.6534 114.548 80.5455 113.989 79.7273 113.25C78.9148 112.511 78.5085 111.534 78.5085 110.318C78.5085 109.312 78.7813 108.435 79.3267 107.685C79.8722 106.935 80.6108 106.352 81.5426 105.938C82.4744 105.517 83.5256 105.307 84.696 105.307C85.8778 105.307 86.9205 105.514 87.8239 105.929C88.733 106.344 89.4489 106.915 89.9716 107.642C90.4943 108.364 90.767 109.193 90.7898 110.131H88.25ZM109.337 114.273C109.337 116.136 108.996 117.739 108.315 119.08C107.633 120.415 106.698 121.443 105.511 122.165C104.329 122.881 102.985 123.239 101.479 123.239C99.968 123.239 98.6186 122.881 97.4311 122.165C96.2493 121.443 95.3175 120.412 94.6357 119.071C93.9538 117.73 93.6129 116.131 93.6129 114.273C93.6129 112.409 93.9538 110.81 94.6357 109.474C95.3175 108.134 96.2493 107.105 97.4311 106.389C98.6186 105.668 99.968 105.307 101.479 105.307C102.985 105.307 104.329 105.668 105.511 106.389C106.698 107.105 107.633 108.134 108.315 109.474C108.996 110.81 109.337 112.409 109.337 114.273ZM106.729 114.273C106.729 112.852 106.499 111.656 106.039 110.685C105.585 109.707 104.96 108.969 104.164 108.469C103.374 107.963 102.479 107.71 101.479 107.71C100.474 107.71 99.576 107.963 98.7862 108.469C97.9964 108.969 97.3714 109.707 96.9112 110.685C96.4567 111.656 96.2294 112.852 96.2294 114.273C96.2294 115.693 96.4567 116.892 96.9112 117.869C97.3714 118.841 97.9964 119.58 98.7862 120.085C99.576 120.585 100.474 120.835 101.479 120.835C102.479 120.835 103.374 120.585 104.164 120.085C104.96 119.58 105.585 118.841 106.039 117.869C106.499 116.892 106.729 115.693 106.729 114.273ZM126.709 105.545V123H124.288L115.416 110.199H115.254V123H112.621V105.545H115.058L123.939 118.364H124.101V105.545H126.709Z" fill="#162839"/>
<path d="M40.7528 153.75H39.608C39.5402 153.421 39.4218 153.131 39.2525 152.882C39.0863 152.633 38.8832 152.424 38.6431 152.254C38.4061 152.082 38.143 151.953 37.8537 151.866C37.5644 151.78 37.2628 151.737 36.9489 151.737C36.3764 151.737 35.8578 151.882 35.3931 152.171C34.9315 152.46 34.5637 152.887 34.2898 153.45C34.0189 154.013 33.8835 154.704 33.8835 155.523C33.8835 156.341 34.0189 157.032 34.2898 157.596C34.5637 158.159 34.9315 158.585 35.3931 158.874C35.8578 159.164 36.3764 159.308 36.9489 159.308C37.2628 159.308 37.5644 159.265 37.8537 159.179C38.143 159.093 38.4061 158.965 38.6431 158.796C38.8832 158.623 39.0863 158.413 39.2525 158.163C39.4218 157.911 39.5402 157.622 39.608 157.295H40.7528C40.6667 157.779 40.5097 158.211 40.282 158.593C40.0542 158.974 39.7711 159.299 39.4325 159.567C39.094 159.831 38.7139 160.033 38.2923 160.172C37.8737 160.31 37.4259 160.379 36.9489 160.379C36.1425 160.379 35.4254 160.182 34.7976 159.788C34.1697 159.394 33.6758 158.834 33.3157 158.108C32.9556 157.382 32.7756 156.52 32.7756 155.523C32.7756 154.526 32.9556 153.664 33.3157 152.938C33.6758 152.211 34.1697 151.651 34.7976 151.257C35.4254 150.863 36.1425 150.666 36.9489 150.666C37.4259 150.666 37.8737 150.735 38.2923 150.874C38.7139 151.012 39.094 151.216 39.4325 151.483C39.7711 151.748 40.0542 152.071 40.282 152.453C40.5097 152.831 40.6667 153.264 40.7528 153.75ZM50.1074 150.795H51.2523V157.055C51.2523 157.702 51.1 158.279 50.7953 158.787C50.4937 159.291 50.0674 159.69 49.5165 159.982C48.9656 160.272 48.3193 160.416 47.5776 160.416C46.8359 160.416 46.1896 160.272 45.6387 159.982C45.0878 159.69 44.66 159.291 44.3553 158.787C44.0537 158.279 43.9029 157.702 43.9029 157.055V150.795H45.0478V156.963C45.0478 157.425 45.1493 157.836 45.3525 158.196C45.5556 158.553 45.8449 158.834 46.2204 159.04C46.5989 159.244 47.0513 159.345 47.5776 159.345C48.1039 159.345 48.5563 159.244 48.9349 159.04C49.3134 158.834 49.6027 158.553 49.8028 158.196C50.0059 157.836 50.1074 157.425 50.1074 156.963V150.795ZM54.8386 160.25V150.795H58.0332C58.7719 150.795 59.3782 150.922 59.8521 151.174C60.3261 151.423 60.6769 151.766 60.9047 152.203C61.1324 152.641 61.2463 153.138 61.2463 153.695C61.2463 154.252 61.1324 154.746 60.9047 155.176C60.6769 155.607 60.3276 155.946 59.8567 156.192C59.3859 156.435 58.7842 156.557 58.0517 156.557H55.4665V155.523H58.0148C58.5195 155.523 58.9258 155.449 59.2335 155.301C59.5444 155.153 59.769 154.944 59.9075 154.673C60.0491 154.399 60.1199 154.073 60.1199 153.695C60.1199 153.316 60.0491 152.985 59.9075 152.702C59.766 152.419 59.5397 152.2 59.2289 152.047C58.9181 151.89 58.5072 151.811 57.9963 151.811H55.9835V160.25H54.8386ZM59.2889 156.003L61.6156 160.25H60.2861L57.9963 156.003H59.2889ZM64.8418 160.25H63.6416L67.1132 150.795H68.295L71.7666 160.25H70.5663L67.741 152.291H67.6671L64.8418 160.25ZM65.285 156.557H70.1231V157.572H65.285V156.557ZM72.9177 151.811V150.795H80.0086V151.811H77.0356V160.25H75.8907V151.811H72.9177ZM83.0756 160.25V150.795H88.7815V151.811H84.2204V155.006H88.4861V156.021H84.2204V159.234H88.8554V160.25H83.0756ZM95.0627 160.25H92.1451V150.795H95.192C96.1091 150.795 96.8939 150.985 97.5464 151.363C98.1988 151.739 98.6989 152.279 99.0467 152.984C99.3945 153.685 99.5684 154.526 99.5684 155.504C99.5684 156.489 99.393 157.337 99.0421 158.048C98.6912 158.756 98.1804 159.301 97.5094 159.682C96.8385 160.061 96.0229 160.25 95.0627 160.25ZM93.29 159.234H94.9888C95.7706 159.234 96.4184 159.084 96.9324 158.782C97.4463 158.48 97.8295 158.051 98.0819 157.494C98.3342 156.937 98.4604 156.274 98.4604 155.504C98.4604 154.741 98.3358 154.084 98.0865 153.533C97.8372 152.979 97.4648 152.554 96.9693 152.259C96.4738 151.96 95.8567 151.811 95.1181 151.811H93.29V159.234ZM107.745 150.795H109.112L112.325 158.643H112.435L115.648 150.795H117.015V160.25H115.944V153.067H115.852L112.897 160.25H111.863L108.908 153.067H108.816V160.25H107.745V150.795ZM128.588 155.523C128.588 156.52 128.408 157.382 128.048 158.108C127.688 158.834 127.194 159.394 126.566 159.788C125.938 160.182 125.221 160.379 124.414 160.379C123.608 160.379 122.891 160.182 122.263 159.788C121.635 159.394 121.141 158.834 120.781 158.108C120.421 157.382 120.241 156.52 120.241 155.523C120.241 154.526 120.421 153.664 120.781 152.938C121.141 152.211 121.635 151.651 122.263 151.257C122.891 150.863 123.608 150.666 124.414 150.666C125.221 150.666 125.938 150.863 126.566 151.257C127.194 151.651 127.688 152.211 128.048 152.938C128.408 153.664 128.588 154.526 128.588 155.523ZM127.48 155.523C127.48 154.704 127.343 154.013 127.069 153.45C126.798 152.887 126.43 152.46 125.966 152.171C125.504 151.882 124.987 151.737 124.414 151.737C123.842 151.737 123.323 151.882 122.859 152.171C122.397 152.46 122.029 152.887 121.755 153.45C121.485 154.013 121.349 154.704 121.349 155.523C121.349 156.341 121.485 157.032 121.755 157.596C122.029 158.159 122.397 158.585 122.859 158.874C123.323 159.164 123.842 159.308 124.414 159.308C124.987 159.308 125.504 159.164 125.966 158.874C126.43 158.585 126.798 158.159 127.069 157.596C127.343 157.032 127.48 156.341 127.48 155.523ZM134.73 160.25H131.813V150.795H134.86C135.777 150.795 136.562 150.985 137.214 151.363C137.867 151.739 138.367 152.279 138.714 152.984C139.062 153.685 139.236 154.526 139.236 155.504C139.236 156.489 139.061 157.337 138.71 158.048C138.359 158.756 137.848 159.301 137.177 159.682C136.506 160.061 135.691 160.25 134.73 160.25ZM132.958 159.234H134.657C135.438 159.234 136.086 159.084 136.6 158.782C137.114 158.48 137.497 158.051 137.75 157.494C138.002 156.937 138.128 156.274 138.128 155.504C138.128 154.741 138.004 154.084 137.754 153.533C137.505 152.979 137.133 152.554 136.637 152.259C136.142 151.96 135.525 151.811 134.786 151.811H132.958V159.234ZM142.457 160.25V150.795H148.163V151.811H143.601V155.006H147.867V156.021H143.601V159.234H148.236V160.25H142.457ZM151.526 160.25V150.795H154.721C155.459 150.795 156.066 150.922 156.54 151.174C157.014 151.423 157.364 151.766 157.592 152.203C157.82 152.641 157.934 153.138 157.934 153.695C157.934 154.252 157.82 154.746 157.592 155.176C157.364 155.607 157.015 155.946 156.544 156.192C156.073 156.435 155.472 156.557 154.739 156.557H152.154V155.523H154.702C155.207 155.523 155.613 155.449 155.921 155.301C156.232 155.153 156.457 154.944 156.595 154.673C156.737 154.399 156.807 154.073 156.807 153.695C156.807 153.316 156.737 152.985 156.595 152.702C156.453 152.419 156.227 152.2 155.916 152.047C155.606 151.89 155.195 151.811 154.684 151.811H152.671V160.25H151.526ZM155.976 156.003L158.303 160.25H156.974L154.684 156.003H155.976ZM168.639 150.795V160.25H167.531L162.379 152.827H162.286V160.25H161.142V150.795H162.25L167.42 158.237H167.512V150.795H168.639ZM177.186 160.25V150.795H178.331V159.234H182.726V160.25H177.186ZM192.003 150.795H193.148V157.055C193.148 157.702 192.995 158.279 192.691 158.787C192.389 159.291 191.963 159.69 191.412 159.982C190.861 160.272 190.215 160.416 189.473 160.416C188.731 160.416 188.085 160.272 187.534 159.982C186.983 159.69 186.556 159.291 186.251 158.787C185.949 158.279 185.798 157.702 185.798 157.055V150.795H186.943V156.963C186.943 157.425 187.045 157.836 187.248 158.196C187.451 158.553 187.74 158.834 188.116 159.04C188.494 159.244 188.947 159.345 189.473 159.345C189.999 159.345 190.452 159.244 190.83 159.04C191.209 158.834 191.498 158.553 191.698 158.196C191.901 157.836 192.003 157.425 192.003 156.963V150.795ZM197.288 150.795L199.726 154.729H199.799L202.237 150.795H203.585L200.612 155.523L203.585 160.25H202.237L199.799 156.391H199.726L197.288 160.25H195.94L198.987 155.523L195.94 150.795H197.288ZM212.58 150.795H213.724V157.055C213.724 157.702 213.572 158.279 213.267 158.787C212.966 159.291 212.539 159.69 211.989 159.982C211.438 160.272 210.791 160.416 210.05 160.416C209.308 160.416 208.662 160.272 208.111 159.982C207.56 159.69 207.132 159.291 206.827 158.787C206.526 158.279 206.375 157.702 206.375 157.055V150.795H207.52V156.963C207.52 157.425 207.621 157.836 207.825 158.196C208.028 158.553 208.317 158.834 208.692 159.04C209.071 159.244 209.523 159.345 210.05 159.345C210.576 159.345 211.028 159.244 211.407 159.04C211.785 158.834 212.075 158.553 212.275 158.196C212.478 157.836 212.58 157.425 212.58 156.963V150.795ZM217.311 160.25V150.795H220.505C221.244 150.795 221.85 150.922 222.324 151.174C222.798 151.423 223.149 151.766 223.377 152.203C223.605 152.641 223.718 153.138 223.718 153.695C223.718 154.252 223.605 154.746 223.377 155.176C223.149 155.607 222.8 155.946 222.329 156.192C221.858 156.435 221.256 156.557 220.524 156.557H217.939V155.523H220.487C220.992 155.523 221.398 155.449 221.706 155.301C222.016 155.153 222.241 154.944 222.38 154.673C222.521 154.399 222.592 154.073 222.592 153.695C222.592 153.316 222.521 152.985 222.38 152.702C222.238 152.419 222.012 152.2 221.701 152.047C221.39 151.89 220.979 151.811 220.468 151.811H218.456V160.25H217.311ZM221.761 156.003L224.088 160.25H222.758L220.468 156.003H221.761ZM225.796 150.795H227.107L229.729 155.209H229.84L232.462 150.795H233.774L230.357 156.354V160.25H229.212V156.354L225.796 150.795ZM246.681 153.159C246.626 152.691 246.401 152.328 246.007 152.07C245.613 151.811 245.13 151.682 244.557 151.682C244.139 151.682 243.773 151.75 243.459 151.885C243.148 152.02 242.905 152.207 242.729 152.444C242.557 152.681 242.471 152.95 242.471 153.251C242.471 153.504 242.531 153.721 242.651 153.902C242.774 154.081 242.931 154.23 243.122 154.35C243.312 154.467 243.513 154.564 243.722 154.641C243.931 154.715 244.123 154.775 244.299 154.821L245.259 155.08C245.505 155.144 245.779 155.233 246.081 155.347C246.386 155.461 246.676 155.617 246.953 155.814C247.233 156.007 247.464 156.257 247.646 156.561C247.827 156.866 247.918 157.24 247.918 157.683C247.918 158.194 247.784 158.656 247.517 159.068C247.252 159.481 246.864 159.808 246.353 160.051C245.845 160.295 245.228 160.416 244.502 160.416C243.825 160.416 243.239 160.307 242.743 160.088C242.251 159.87 241.863 159.565 241.58 159.174C241.3 158.783 241.141 158.33 241.104 157.812H242.286C242.317 158.17 242.437 158.465 242.646 158.699C242.859 158.93 243.126 159.102 243.449 159.216C243.776 159.327 244.127 159.382 244.502 159.382C244.939 159.382 245.331 159.311 245.679 159.17C246.027 159.025 246.302 158.825 246.506 158.57C246.709 158.311 246.81 158.009 246.81 157.665C246.81 157.351 246.723 157.095 246.547 156.898C246.372 156.701 246.141 156.541 245.855 156.418C245.568 156.295 245.259 156.187 244.927 156.095L243.763 155.763C243.025 155.55 242.44 155.247 242.009 154.853C241.578 154.459 241.363 153.944 241.363 153.307C241.363 152.777 241.506 152.316 241.792 151.922C242.081 151.525 242.469 151.217 242.955 150.999C243.445 150.777 243.991 150.666 244.594 150.666C245.204 150.666 245.745 150.775 246.219 150.994C246.693 151.209 247.069 151.505 247.346 151.88C247.626 152.256 247.774 152.682 247.789 153.159H246.681ZM252.245 150.795V160.25H251.101V150.795H252.245ZM263.338 150.795V160.25H262.23L257.078 152.827H256.986V160.25H255.841V150.795H256.949L262.119 158.237H262.212V150.795H263.338ZM274.537 153.75H273.392C273.324 153.421 273.206 153.131 273.037 152.882C272.87 152.633 272.667 152.424 272.427 152.254C272.19 152.082 271.927 151.953 271.638 151.866C271.349 151.78 271.047 151.737 270.733 151.737C270.161 151.737 269.642 151.882 269.177 152.171C268.716 152.46 268.348 152.887 268.074 153.45C267.803 154.013 267.668 154.704 267.668 155.523C267.668 156.341 267.803 157.032 268.074 157.596C268.348 158.159 268.716 158.585 269.177 158.874C269.642 159.164 270.161 159.308 270.733 159.308C271.047 159.308 271.349 159.265 271.638 159.179C271.927 159.093 272.19 158.965 272.427 158.796C272.667 158.623 272.87 158.413 273.037 158.163C273.206 157.911 273.324 157.622 273.392 157.295H274.537C274.451 157.779 274.294 158.211 274.066 158.593C273.838 158.974 273.555 159.299 273.217 159.567C272.878 159.831 272.498 160.033 272.076 160.172C271.658 160.31 271.21 160.379 270.733 160.379C269.927 160.379 269.21 160.182 268.582 159.788C267.954 159.394 267.46 158.834 267.1 158.108C266.74 157.382 266.56 156.52 266.56 155.523C266.56 154.526 266.74 153.664 267.1 152.938C267.46 152.211 267.954 151.651 268.582 151.257C269.21 150.863 269.927 150.666 270.733 150.666C271.21 150.666 271.658 150.735 272.076 150.874C272.498 151.012 272.878 151.216 273.217 151.483C273.555 151.748 273.838 152.071 274.066 152.453C274.294 152.831 274.451 153.264 274.537 153.75ZM277.687 160.25V150.795H283.393V151.811H278.832V155.006H283.098V156.021H278.832V159.234H283.467V160.25H277.687ZM32.9787 180.25V179.419L36.0994 176.003C36.4657 175.603 36.7673 175.255 37.0043 174.96C37.2412 174.661 37.4167 174.381 37.5305 174.119C37.6475 173.855 37.706 173.578 37.706 173.288C37.706 172.956 37.6259 172.668 37.4659 172.425C37.3089 172.182 37.0935 171.994 36.8196 171.862C36.5457 171.73 36.2379 171.663 35.8963 171.663C35.5331 171.663 35.2161 171.739 34.9453 171.89C34.6776 172.037 34.4698 172.245 34.3221 172.513C34.1774 172.781 34.1051 173.094 34.1051 173.455H33.0156C33.0156 172.901 33.1433 172.414 33.3988 171.996C33.6542 171.577 34.002 171.251 34.4421 171.017C34.8853 170.783 35.3823 170.666 35.9332 170.666C36.4872 170.666 36.9781 170.783 37.4059 171.017C37.8337 171.251 38.1692 171.566 38.4123 171.963C38.6554 172.36 38.777 172.802 38.777 173.288C38.777 173.636 38.7139 173.976 38.5877 174.309C38.4646 174.638 38.2492 175.006 37.9414 175.412C37.6367 175.815 37.2135 176.308 36.6719 176.889L34.5483 179.161V179.234H38.9432V180.25H32.9787ZM45.2336 180.379C44.538 180.379 43.9456 180.19 43.4563 179.811C42.9669 179.43 42.593 178.877 42.3344 178.154C42.0759 177.428 41.9467 176.551 41.9467 175.523C41.9467 174.501 42.0759 173.628 42.3344 172.905C42.596 172.179 42.9715 171.625 43.4609 171.243C43.9533 170.859 44.5442 170.666 45.2336 170.666C45.923 170.666 46.5124 170.859 47.0017 171.243C47.4941 171.625 47.8696 172.179 48.1281 172.905C48.3897 173.628 48.5205 174.501 48.5205 175.523C48.5205 176.551 48.3913 177.428 48.1327 178.154C47.8742 178.877 47.5003 179.43 47.0109 179.811C46.5216 180.19 45.9291 180.379 45.2336 180.379ZM45.2336 179.364C45.923 179.364 46.4585 179.031 46.8401 178.366C47.2218 177.702 47.4126 176.754 47.4126 175.523C47.4126 174.704 47.3249 174.007 47.1494 173.431C46.9771 172.856 46.7278 172.417 46.4016 172.116C46.0784 171.814 45.6891 171.663 45.2336 171.663C44.5504 171.663 44.0164 172 43.6317 172.674C43.247 173.345 43.0546 174.295 43.0546 175.523C43.0546 176.341 43.1408 177.037 43.3131 177.609C43.4855 178.182 43.7332 178.617 44.0564 178.916C44.3826 179.214 44.775 179.364 45.2336 179.364ZM51.5748 180.25V179.419L54.6955 176.003C55.0618 175.603 55.3634 175.255 55.6004 174.96C55.8373 174.661 56.0128 174.381 56.1266 174.119C56.2436 173.855 56.3021 173.578 56.3021 173.288C56.3021 172.956 56.222 172.668 56.062 172.425C55.905 172.182 55.6896 171.994 55.4157 171.862C55.1418 171.73 54.834 171.663 54.4924 171.663C54.1292 171.663 53.8122 171.739 53.5414 171.89C53.2737 172.037 53.0659 172.245 52.9182 172.513C52.7735 172.781 52.7012 173.094 52.7012 173.455H51.6117C51.6117 172.901 51.7394 172.414 51.9949 171.996C52.2503 171.577 52.5981 171.251 53.0382 171.017C53.4814 170.783 53.9784 170.666 54.5293 170.666C55.0833 170.666 55.5742 170.783 56.002 171.017C56.4298 171.251 56.7652 171.566 57.0084 171.963C57.2515 172.36 57.3731 172.802 57.3731 173.288C57.3731 173.636 57.31 173.976 57.1838 174.309C57.0607 174.638 56.8453 175.006 56.5375 175.412C56.2328 175.815 55.8096 176.308 55.268 176.889L53.1444 179.161V179.234H57.5393V180.25H51.5748ZM60.3212 178.311V177.369L64.476 170.795H65.1592V172.254H64.6976L61.5584 177.222V177.295H67.1536V178.311H60.3212ZM64.7714 180.25V178.025V177.586V170.795H65.8609V180.25H64.7714ZM70.5517 180.324C70.324 180.324 70.1286 180.242 69.9654 180.079C69.8023 179.916 69.7208 179.721 69.7208 179.493C69.7208 179.265 69.8023 179.07 69.9654 178.907C70.1286 178.743 70.324 178.662 70.5517 178.662C70.7795 178.662 70.9749 178.743 71.138 178.907C71.3011 179.07 71.3827 179.265 71.3827 179.493C71.3827 179.644 71.3442 179.782 71.2673 179.908C71.1934 180.035 71.0934 180.136 70.9672 180.213C70.8441 180.287 70.7056 180.324 70.5517 180.324Z" fill="#635E55"/>
<path d="M349.523 101.602H348.305C348.258 101.341 348.171 101.112 348.043 100.914C347.915 100.716 347.759 100.548 347.574 100.41C347.389 100.272 347.182 100.168 346.953 100.098C346.727 100.027 346.486 99.9922 346.23 99.9922C345.77 99.9922 345.357 100.108 344.992 100.34C344.63 100.572 344.344 100.911 344.133 101.359C343.924 101.807 343.82 102.354 343.82 103C343.82 103.651 343.924 104.201 344.133 104.648C344.344 105.096 344.632 105.435 344.996 105.664C345.361 105.893 345.771 106.008 346.227 106.008C346.479 106.008 346.719 105.974 346.945 105.906C347.174 105.836 347.382 105.733 347.566 105.598C347.751 105.462 347.908 105.297 348.035 105.102C348.165 104.904 348.255 104.677 348.305 104.422L349.523 104.426C349.458 104.819 349.332 105.181 349.145 105.512C348.96 105.84 348.721 106.124 348.43 106.363C348.141 106.6 347.81 106.784 347.438 106.914C347.065 107.044 346.659 107.109 346.219 107.109C345.526 107.109 344.909 106.945 344.367 106.617C343.826 106.286 343.398 105.814 343.086 105.199C342.776 104.585 342.621 103.852 342.621 103C342.621 102.146 342.777 101.413 343.09 100.801C343.402 100.186 343.829 99.7148 344.371 99.3867C344.913 99.056 345.529 98.8906 346.219 98.8906C346.643 98.8906 347.039 98.9518 347.406 99.0742C347.776 99.194 348.108 99.3711 348.402 99.6055C348.697 99.8372 348.94 100.121 349.133 100.457C349.326 100.79 349.456 101.172 349.523 101.602ZM359.017 103C359.017 103.854 358.861 104.589 358.548 105.203C358.236 105.815 357.807 106.286 357.263 106.617C356.721 106.945 356.106 107.109 355.415 107.109C354.723 107.109 354.104 106.945 353.56 106.617C353.018 106.286 352.591 105.814 352.279 105.199C351.966 104.585 351.81 103.852 351.81 103C351.81 102.146 351.966 101.413 352.279 100.801C352.591 100.186 353.018 99.7148 353.56 99.3867C354.104 99.056 354.723 98.8906 355.415 98.8906C356.106 98.8906 356.721 99.056 357.263 99.3867C357.807 99.7148 358.236 100.186 358.548 100.801C358.861 101.413 359.017 102.146 359.017 103ZM357.822 103C357.822 102.349 357.716 101.801 357.505 101.355C357.297 100.908 357.01 100.569 356.646 100.34C356.284 100.108 355.874 99.9922 355.415 99.9922C354.954 99.9922 354.543 100.108 354.181 100.34C353.819 100.569 353.533 100.908 353.322 101.355C353.113 101.801 353.009 102.349 353.009 103C353.009 103.651 353.113 104.201 353.322 104.648C353.533 105.094 353.819 105.432 354.181 105.664C354.543 105.893 354.954 106.008 355.415 106.008C355.874 106.008 356.284 105.893 356.646 105.664C357.01 105.432 357.297 105.094 357.505 104.648C357.716 104.201 357.822 103.651 357.822 103ZM361.622 99H363.087L365.634 105.219H365.727L368.274 99H369.739V107H368.591V101.211H368.516L366.157 106.988H365.204L362.845 101.207H362.77V107H361.622V99ZM372.594 107V99H375.446C376.068 99 376.584 99.1133 376.992 99.3398C377.401 99.5664 377.707 99.8763 377.91 100.27C378.113 100.66 378.215 101.1 378.215 101.59C378.215 102.082 378.112 102.525 377.906 102.918C377.703 103.309 377.396 103.618 376.985 103.848C376.576 104.074 376.061 104.188 375.442 104.188H373.481V103.164H375.332C375.725 103.164 376.044 103.096 376.289 102.961C376.534 102.823 376.714 102.635 376.828 102.398C376.943 102.161 377 101.892 377 101.59C377 101.288 376.943 101.02 376.828 100.785C376.714 100.551 376.533 100.367 376.285 100.234C376.041 100.102 375.718 100.035 375.317 100.035H373.801V107H372.594ZM380.557 107H379.276L382.155 99H383.549L386.428 107H385.147L382.885 100.453H382.823L380.557 107ZM380.772 103.867H384.928V104.883H380.772V103.867ZM395.141 99V107H394.031L389.965 101.133H389.891V107H388.684V99H389.801L393.871 104.875H393.945V99H395.141ZM397.384 99H398.755L400.845 102.637H400.931L403.021 99H404.392L401.49 103.859V107H400.287V103.859L397.384 99Z" fill="#162839"/>
<path d="M343.533 148H342.332L345.804 138.545H346.986L350.457 148H349.257L346.432 140.041H346.358L343.533 148ZM343.976 144.307H348.814V145.322H343.976V144.307ZM353.23 148V138.545H356.535C357.194 138.545 357.737 138.659 358.165 138.887C358.593 139.112 358.911 139.415 359.121 139.797C359.33 140.175 359.435 140.595 359.435 141.057C359.435 141.463 359.362 141.799 359.218 142.063C359.076 142.328 358.888 142.537 358.654 142.691C358.424 142.845 358.173 142.959 357.902 143.033V143.125C358.191 143.143 358.482 143.245 358.774 143.43C359.067 143.614 359.311 143.879 359.508 144.224C359.705 144.568 359.804 144.99 359.804 145.489C359.804 145.963 359.696 146.389 359.481 146.767C359.265 147.146 358.925 147.446 358.461 147.668C357.996 147.889 357.391 148 356.646 148H353.23ZM354.375 146.984H356.646C357.394 146.984 357.925 146.84 358.239 146.55C358.556 146.258 358.714 145.904 358.714 145.489C358.714 145.169 358.633 144.873 358.47 144.602C358.307 144.328 358.074 144.11 357.773 143.947C357.471 143.781 357.114 143.697 356.702 143.697H354.375V146.984ZM354.375 142.7H356.499C356.843 142.7 357.154 142.633 357.431 142.497C357.711 142.362 357.933 142.171 358.096 141.925C358.262 141.679 358.345 141.389 358.345 141.057C358.345 140.641 358.2 140.289 357.911 140C357.622 139.707 357.163 139.561 356.535 139.561H354.375V142.7ZM370.962 143.273C370.962 144.27 370.782 145.132 370.422 145.858C370.062 146.584 369.568 147.144 368.94 147.538C368.313 147.932 367.595 148.129 366.789 148.129C365.983 148.129 365.266 147.932 364.638 147.538C364.01 147.144 363.516 146.584 363.156 145.858C362.796 145.132 362.616 144.27 362.616 143.273C362.616 142.276 362.796 141.414 363.156 140.688C363.516 139.961 364.01 139.401 364.638 139.007C365.266 138.613 365.983 138.416 366.789 138.416C367.595 138.416 368.313 138.613 368.94 139.007C369.568 139.401 370.062 139.961 370.422 140.688C370.782 141.414 370.962 142.276 370.962 143.273ZM369.854 143.273C369.854 142.454 369.717 141.763 369.444 141.2C369.173 140.637 368.805 140.21 368.34 139.921C367.879 139.632 367.362 139.487 366.789 139.487C366.217 139.487 365.698 139.632 365.233 139.921C364.772 140.21 364.404 140.637 364.13 141.2C363.859 141.763 363.724 142.454 363.724 143.273C363.724 144.091 363.859 144.782 364.13 145.346C364.404 145.909 364.772 146.335 365.233 146.624C365.698 146.914 366.217 147.058 366.789 147.058C367.362 147.058 367.879 146.914 368.34 146.624C368.805 146.335 369.173 145.909 369.444 145.346C369.717 144.782 369.854 144.091 369.854 143.273ZM380.392 138.545H381.537V144.805C381.537 145.452 381.385 146.029 381.08 146.537C380.778 147.041 380.352 147.44 379.801 147.732C379.25 148.022 378.604 148.166 377.862 148.166C377.12 148.166 376.474 148.022 375.923 147.732C375.372 147.44 374.945 147.041 374.64 146.537C374.338 146.029 374.187 145.452 374.187 144.805V138.545H375.332V144.713C375.332 145.175 375.434 145.586 375.637 145.946C375.84 146.303 376.129 146.584 376.505 146.79C376.883 146.994 377.336 147.095 377.862 147.095C378.388 147.095 378.841 146.994 379.219 146.79C379.598 146.584 379.887 146.303 380.087 145.946C380.29 145.586 380.392 145.175 380.392 144.713V138.545ZM384.606 139.561V138.545H391.697V139.561H388.724V148H387.579V139.561H384.606ZM405.925 138.545H407.07V144.805C407.07 145.452 406.917 146.029 406.613 146.537C406.311 147.041 405.885 147.44 405.334 147.732C404.783 148.022 404.137 148.166 403.395 148.166C402.653 148.166 402.007 148.022 401.456 147.732C400.905 147.44 400.477 147.041 400.173 146.537C399.871 146.029 399.72 145.452 399.72 144.805V138.545H400.865V144.713C400.865 145.175 400.967 145.586 401.17 145.946C401.373 146.303 401.662 146.584 402.038 146.79C402.416 146.994 402.869 147.095 403.395 147.095C403.921 147.095 404.374 146.994 404.752 146.79C405.131 146.584 405.42 146.303 405.62 145.946C405.823 145.586 405.925 145.175 405.925 144.713V138.545ZM415.826 140.909C415.771 140.441 415.546 140.078 415.152 139.82C414.759 139.561 414.275 139.432 413.703 139.432C413.284 139.432 412.918 139.5 412.604 139.635C412.293 139.77 412.05 139.957 411.875 140.194C411.702 140.431 411.616 140.7 411.616 141.001C411.616 141.254 411.676 141.471 411.796 141.652C411.919 141.831 412.076 141.98 412.267 142.1C412.458 142.217 412.658 142.314 412.867 142.391C413.077 142.465 413.269 142.525 413.444 142.571L414.405 142.83C414.651 142.894 414.925 142.983 415.226 143.097C415.531 143.211 415.822 143.367 416.099 143.564C416.379 143.757 416.61 144.007 416.791 144.311C416.973 144.616 417.064 144.99 417.064 145.433C417.064 145.944 416.93 146.406 416.662 146.818C416.397 147.231 416.01 147.558 415.499 147.801C414.991 148.045 414.374 148.166 413.647 148.166C412.97 148.166 412.384 148.057 411.889 147.838C411.396 147.62 411.008 147.315 410.725 146.924C410.445 146.533 410.287 146.08 410.25 145.562H411.432C411.462 145.92 411.582 146.215 411.792 146.449C412.004 146.68 412.272 146.852 412.595 146.966C412.921 147.077 413.272 147.132 413.647 147.132C414.085 147.132 414.477 147.061 414.825 146.92C415.172 146.775 415.448 146.575 415.651 146.32C415.854 146.061 415.956 145.759 415.956 145.415C415.956 145.101 415.868 144.845 415.693 144.648C415.517 144.451 415.286 144.291 415 144.168C414.714 144.045 414.405 143.937 414.072 143.845L412.909 143.513C412.17 143.3 411.585 142.997 411.155 142.603C410.724 142.209 410.508 141.694 410.508 141.057C410.508 140.527 410.651 140.066 410.938 139.672C411.227 139.275 411.615 138.967 412.101 138.749C412.59 138.527 413.137 138.416 413.74 138.416C414.349 138.416 414.891 138.525 415.365 138.744C415.839 138.959 416.214 139.255 416.491 139.63C416.771 140.006 416.919 140.432 416.934 140.909H415.826Z" fill="#635E55"/>
<path d="M350.753 177.5H349.608C349.54 177.171 349.422 176.881 349.252 176.632C349.086 176.383 348.883 176.174 348.643 176.004C348.406 175.832 348.143 175.703 347.854 175.616C347.564 175.53 347.263 175.487 346.949 175.487C346.376 175.487 345.858 175.632 345.393 175.921C344.931 176.21 344.564 176.637 344.29 177.2C344.019 177.763 343.884 178.454 343.884 179.273C343.884 180.091 344.019 180.782 344.29 181.346C344.564 181.909 344.931 182.335 345.393 182.624C345.858 182.914 346.376 183.058 346.949 183.058C347.263 183.058 347.564 183.015 347.854 182.929C348.143 182.843 348.406 182.715 348.643 182.546C348.883 182.373 349.086 182.163 349.252 181.913C349.422 181.661 349.54 181.372 349.608 181.045H350.753C350.667 181.529 350.51 181.961 350.282 182.343C350.054 182.724 349.771 183.049 349.433 183.317C349.094 183.581 348.714 183.783 348.292 183.922C347.874 184.06 347.426 184.129 346.949 184.129C346.143 184.129 345.425 183.932 344.798 183.538C344.17 183.144 343.676 182.584 343.316 181.858C342.956 181.132 342.776 180.27 342.776 179.273C342.776 178.276 342.956 177.414 343.316 176.688C343.676 175.961 344.17 175.401 344.798 175.007C345.425 174.613 346.143 174.416 346.949 174.416C347.426 174.416 347.874 174.485 348.292 174.624C348.714 174.762 349.094 174.966 349.433 175.233C349.771 175.498 350.054 175.821 350.282 176.203C350.51 176.581 350.667 177.014 350.753 177.5ZM354.291 184H353.09L356.562 174.545H357.744L361.215 184H360.015L357.19 176.041H357.116L354.291 184ZM354.734 180.307H359.572V181.322H354.734V180.307ZM363.988 184V174.545H367.183C367.921 174.545 368.528 174.672 369.002 174.924C369.476 175.173 369.826 175.516 370.054 175.953C370.282 176.391 370.396 176.888 370.396 177.445C370.396 178.002 370.282 178.496 370.054 178.926C369.826 179.357 369.477 179.696 369.006 179.942C368.535 180.185 367.934 180.307 367.201 180.307H364.616V179.273H367.164C367.669 179.273 368.075 179.199 368.383 179.051C368.694 178.903 368.918 178.694 369.057 178.423C369.199 178.149 369.269 177.823 369.269 177.445C369.269 177.066 369.199 176.735 369.057 176.452C368.915 176.169 368.689 175.95 368.378 175.797C368.067 175.64 367.657 175.561 367.146 175.561H365.133V184H363.988ZM368.438 179.753L370.765 184H369.435L367.146 179.753H368.438ZM373.603 184V174.545H379.309V175.561H374.748V178.756H379.014V179.771H374.748V182.984H379.383V184H373.603ZM382.673 184V174.545H388.379V175.561H383.818V178.756H388.084V179.771H383.818V182.984H388.453V184H382.673ZM391.743 184V174.545H394.937C395.676 174.545 396.282 174.672 396.756 174.924C397.23 175.173 397.581 175.516 397.809 175.953C398.036 176.391 398.15 176.888 398.15 177.445C398.15 178.002 398.036 178.496 397.809 178.926C397.581 179.357 397.232 179.696 396.761 179.942C396.29 180.185 395.688 180.307 394.956 180.307H392.37V179.273H394.919C395.423 179.273 395.83 179.199 396.137 179.051C396.448 178.903 396.673 178.694 396.811 178.423C396.953 178.149 397.024 177.823 397.024 177.445C397.024 177.066 396.953 176.735 396.811 176.452C396.67 176.169 396.444 175.95 396.133 175.797C395.822 175.64 395.411 175.561 394.9 175.561H392.887V184H391.743ZM396.193 179.753L398.52 184H397.19L394.9 179.753H396.193ZM406.528 176.909C406.473 176.441 406.248 176.078 405.854 175.82C405.46 175.561 404.977 175.432 404.405 175.432C403.986 175.432 403.62 175.5 403.306 175.635C402.995 175.77 402.752 175.957 402.577 176.194C402.404 176.431 402.318 176.7 402.318 177.001C402.318 177.254 402.378 177.471 402.498 177.652C402.621 177.831 402.778 177.98 402.969 178.1C403.16 178.217 403.36 178.314 403.569 178.391C403.779 178.465 403.971 178.525 404.146 178.571L405.107 178.83C405.353 178.894 405.627 178.983 405.928 179.097C406.233 179.211 406.524 179.367 406.801 179.564C407.081 179.757 407.312 180.007 407.493 180.311C407.675 180.616 407.766 180.99 407.766 181.433C407.766 181.944 407.632 182.406 407.364 182.818C407.099 183.231 406.712 183.558 406.201 183.801C405.693 184.045 405.076 184.166 404.349 184.166C403.672 184.166 403.086 184.057 402.591 183.838C402.098 183.62 401.71 183.315 401.427 182.924C401.147 182.533 400.989 182.08 400.952 181.562H402.134C402.164 181.92 402.284 182.215 402.494 182.449C402.706 182.68 402.974 182.852 403.297 182.966C403.623 183.077 403.974 183.132 404.349 183.132C404.786 183.132 405.179 183.061 405.527 182.92C405.874 182.775 406.15 182.575 406.353 182.32C406.556 182.061 406.658 181.759 406.658 181.415C406.658 181.101 406.57 180.845 406.395 180.648C406.219 180.451 405.988 180.291 405.702 180.168C405.416 180.045 405.107 179.937 404.774 179.845L403.611 179.513C402.872 179.3 402.287 178.997 401.857 178.603C401.426 178.209 401.21 177.694 401.21 177.057C401.21 176.527 401.353 176.066 401.64 175.672C401.929 175.275 402.317 174.967 402.803 174.749C403.292 174.527 403.839 174.416 404.442 174.416C405.051 174.416 405.593 174.525 406.067 174.744C406.541 174.959 406.916 175.255 407.193 175.63C407.473 176.006 407.621 176.432 407.636 176.909H406.528Z" fill="#635E55"/>
<path d="M348.315 212.909C348.26 212.441 348.035 212.078 347.641 211.82C347.247 211.561 346.764 211.432 346.192 211.432C345.773 211.432 345.407 211.5 345.093 211.635C344.782 211.77 344.539 211.957 344.364 212.194C344.191 212.431 344.105 212.7 344.105 213.001C344.105 213.254 344.165 213.471 344.285 213.652C344.408 213.831 344.565 213.98 344.756 214.1C344.947 214.217 345.147 214.314 345.356 214.391C345.565 214.465 345.758 214.525 345.933 214.571L346.893 214.83C347.14 214.894 347.414 214.983 347.715 215.097C348.02 215.211 348.311 215.367 348.588 215.564C348.868 215.757 349.099 216.007 349.28 216.311C349.462 216.616 349.553 216.99 349.553 217.433C349.553 217.944 349.419 218.406 349.151 218.818C348.886 219.231 348.498 219.558 347.988 219.801C347.48 220.045 346.863 220.166 346.136 220.166C345.459 220.166 344.873 220.057 344.377 219.838C343.885 219.62 343.497 219.315 343.214 218.924C342.934 218.533 342.776 218.08 342.739 217.562H343.92C343.951 217.92 344.071 218.215 344.281 218.449C344.493 218.68 344.761 218.852 345.084 218.966C345.41 219.077 345.761 219.132 346.136 219.132C346.573 219.132 346.966 219.061 347.314 218.92C347.661 218.775 347.937 218.575 348.14 218.32C348.343 218.061 348.445 217.759 348.445 217.415C348.445 217.101 348.357 216.845 348.181 216.648C348.006 216.451 347.775 216.291 347.489 216.168C347.203 216.045 346.893 215.937 346.561 215.845L345.398 215.513C344.659 215.3 344.074 214.997 343.643 214.603C343.213 214.209 342.997 213.694 342.997 213.057C342.997 212.527 343.14 212.066 343.426 211.672C343.716 211.275 344.104 210.967 344.59 210.749C345.079 210.527 345.625 210.416 346.229 210.416C346.838 210.416 347.38 210.525 347.854 210.744C348.328 210.959 348.703 211.255 348.98 211.63C349.26 212.006 349.408 212.432 349.423 212.909H348.315ZM358.939 210.545H360.084V216.805C360.084 217.452 359.932 218.029 359.627 218.537C359.326 219.041 358.899 219.44 358.349 219.732C357.798 220.022 357.151 220.166 356.41 220.166C355.668 220.166 355.022 220.022 354.471 219.732C353.92 219.44 353.492 219.041 353.187 218.537C352.886 218.029 352.735 217.452 352.735 216.805V210.545H353.88V216.713C353.88 217.175 353.981 217.586 354.184 217.946C354.388 218.303 354.677 218.584 355.052 218.79C355.431 218.994 355.883 219.095 356.41 219.095C356.936 219.095 357.388 218.994 357.767 218.79C358.145 218.584 358.435 218.303 358.635 217.946C358.838 217.586 358.939 217.175 358.939 216.713V210.545ZM368.841 212.909C368.786 212.441 368.561 212.078 368.167 211.82C367.773 211.561 367.29 211.432 366.718 211.432C366.299 211.432 365.933 211.5 365.619 211.635C365.308 211.77 365.065 211.957 364.889 212.194C364.717 212.431 364.631 212.7 364.631 213.001C364.631 213.254 364.691 213.471 364.811 213.652C364.934 213.831 365.091 213.98 365.282 214.1C365.473 214.217 365.673 214.314 365.882 214.391C366.091 214.465 366.284 214.525 366.459 214.571L367.419 214.83C367.665 214.894 367.939 214.983 368.241 215.097C368.546 215.211 368.837 215.367 369.113 215.564C369.394 215.757 369.624 216.007 369.806 216.311C369.988 216.616 370.078 216.99 370.078 217.433C370.078 217.944 369.944 218.406 369.677 218.818C369.412 219.231 369.024 219.558 368.513 219.801C368.006 220.045 367.388 220.166 366.662 220.166C365.985 220.166 365.399 220.057 364.903 219.838C364.411 219.62 364.023 219.315 363.74 218.924C363.46 218.533 363.301 218.08 363.264 217.562H364.446C364.477 217.92 364.597 218.215 364.806 218.449C365.019 218.68 365.286 218.852 365.61 218.966C365.936 219.077 366.287 219.132 366.662 219.132C367.099 219.132 367.492 219.061 367.839 218.92C368.187 218.775 368.463 218.575 368.666 218.32C368.869 218.061 368.97 217.759 368.97 217.415C368.97 217.101 368.883 216.845 368.707 216.648C368.532 216.451 368.301 216.291 368.015 216.168C367.729 216.045 367.419 215.937 367.087 215.845L365.924 215.513C365.185 215.3 364.6 214.997 364.169 214.603C363.738 214.209 363.523 213.694 363.523 213.057C363.523 212.527 363.666 212.066 363.952 211.672C364.242 211.275 364.629 210.967 365.116 210.749C365.605 210.527 366.151 210.416 366.754 210.416C367.364 210.416 367.906 210.525 368.379 210.744C368.853 210.959 369.229 211.255 369.506 211.63C369.786 212.006 369.934 212.432 369.949 212.909H368.841ZM372.744 211.561V210.545H379.835V211.561H376.862V220H375.717V211.561H372.744ZM382.185 220H380.985L384.456 210.545H385.638L389.11 220H387.909L385.084 212.041H385.01L382.185 220ZM382.628 216.307H387.466V217.322H382.628V216.307ZM393.027 210.545V220H391.882V210.545H393.027ZM404.12 210.545V220H403.012L397.86 212.577H397.768V220H396.623V210.545H397.731L402.901 217.987H402.993V210.545H404.12ZM408.098 220H406.898L410.37 210.545H411.552L415.023 220H413.823L410.998 212.041H410.924L408.098 220ZM408.542 216.307H413.38V217.322H408.542V216.307ZM417.796 220V210.545H421.101C421.76 210.545 422.303 210.659 422.731 210.887C423.159 211.112 423.477 211.415 423.686 211.797C423.896 212.175 424 212.595 424 213.057C424 213.463 423.928 213.799 423.783 214.063C423.642 214.328 423.454 214.537 423.22 214.691C422.989 214.845 422.739 214.959 422.468 215.033V215.125C422.757 215.143 423.048 215.245 423.34 215.43C423.633 215.614 423.877 215.879 424.074 216.224C424.271 216.568 424.37 216.99 424.37 217.489C424.37 217.963 424.262 218.389 424.047 218.767C423.831 219.146 423.491 219.446 423.026 219.668C422.562 219.889 421.957 220 421.212 220H417.796ZM418.941 218.984H421.212C421.96 218.984 422.491 218.84 422.805 218.55C423.122 218.258 423.28 217.904 423.28 217.489C423.28 217.169 423.199 216.873 423.036 216.602C422.872 216.328 422.64 216.11 422.338 215.947C422.037 215.781 421.68 215.697 421.267 215.697H418.941V218.984ZM418.941 214.7H421.064C421.409 214.7 421.72 214.633 421.997 214.497C422.277 214.362 422.499 214.171 422.662 213.925C422.828 213.679 422.911 213.389 422.911 213.057C422.911 212.641 422.766 212.289 422.477 212C422.188 211.707 421.729 211.561 421.101 211.561H418.941V214.7ZM428.696 210.545V220H427.551V210.545H428.696ZM432.291 220V210.545H433.436V218.984H437.831V220H432.291ZM442.049 210.545V220H440.904V210.545H442.049ZM445.127 211.561V210.545H452.218V211.561H449.245V220H448.1V211.561H445.127ZM454.473 210.545H455.784L458.406 214.959H458.517L461.139 210.545H462.45L459.034 216.104V220H457.889V216.104L454.473 210.545Z" fill="#635E55"/>
<path d="M657.242 101.102C657.201 100.732 657.029 100.445 656.727 100.242C656.424 100.036 656.044 99.9336 655.586 99.9336C655.258 99.9336 654.974 99.9857 654.734 100.09C654.495 100.191 654.309 100.332 654.176 100.512C654.046 100.689 653.98 100.891 653.98 101.117C653.98 101.307 654.025 101.471 654.113 101.609C654.204 101.747 654.323 101.863 654.469 101.957C654.617 102.048 654.776 102.125 654.945 102.188C655.115 102.247 655.277 102.297 655.434 102.336L656.215 102.539C656.47 102.602 656.732 102.686 657 102.793C657.268 102.9 657.517 103.04 657.746 103.215C657.975 103.389 658.16 103.605 658.301 103.863C658.444 104.121 658.516 104.43 658.516 104.789C658.516 105.242 658.398 105.645 658.164 105.996C657.932 106.348 657.595 106.625 657.152 106.828C656.712 107.031 656.18 107.133 655.555 107.133C654.956 107.133 654.438 107.038 654 106.848C653.563 106.658 653.22 106.388 652.973 106.039C652.725 105.687 652.589 105.271 652.563 104.789H653.773C653.797 105.078 653.891 105.319 654.055 105.512C654.221 105.702 654.434 105.844 654.691 105.937C654.952 106.029 655.237 106.074 655.547 106.074C655.888 106.074 656.191 106.021 656.457 105.914C656.725 105.805 656.936 105.654 657.09 105.461C657.243 105.266 657.32 105.038 657.32 104.777C657.32 104.54 657.253 104.346 657.117 104.195C656.984 104.044 656.803 103.919 656.574 103.82C656.348 103.721 656.091 103.634 655.805 103.559L654.859 103.301C654.219 103.126 653.711 102.87 653.336 102.531C652.964 102.193 652.777 101.745 652.777 101.187C652.777 100.727 652.902 100.324 653.152 99.9805C653.402 99.6367 653.741 99.3698 654.168 99.1797C654.595 98.987 655.077 98.8906 655.613 98.8906C656.155 98.8906 656.633 98.9857 657.047 99.1758C657.464 99.3659 657.792 99.6276 658.031 99.9609C658.271 100.292 658.396 100.672 658.406 101.102H657.242ZM666.203 99H667.413V104.262C667.413 104.822 667.282 105.318 667.019 105.75C666.756 106.18 666.386 106.518 665.91 106.766C665.433 107.01 664.874 107.133 664.234 107.133C663.596 107.133 663.038 107.01 662.562 106.766C662.085 106.518 661.716 106.18 661.453 105.75C661.19 105.318 661.058 104.822 661.058 104.262V99H662.265V104.164C662.265 104.526 662.344 104.848 662.503 105.129C662.665 105.41 662.893 105.632 663.187 105.793C663.481 105.952 663.83 106.031 664.234 106.031C664.64 106.031 664.99 105.952 665.285 105.793C665.581 105.632 665.808 105.41 665.964 105.129C666.123 104.848 666.203 104.526 666.203 104.164V99ZM670.268 107V99H673.12C673.742 99 674.258 99.1133 674.667 99.3398C675.076 99.5664 675.382 99.8763 675.585 100.27C675.788 100.66 675.889 101.1 675.889 101.59C675.889 102.082 675.787 102.525 675.581 102.918C675.378 103.309 675.07 103.618 674.659 103.848C674.25 104.074 673.736 104.188 673.116 104.188H671.155V103.164H673.007C673.4 103.164 673.719 103.096 673.964 102.961C674.208 102.823 674.388 102.635 674.503 102.398C674.617 102.161 674.675 101.892 674.675 101.59C674.675 101.288 674.617 101.02 674.503 100.785C674.388 100.551 674.207 100.367 673.96 100.234C673.715 100.102 673.392 100.035 672.991 100.035H671.475V107H670.268ZM678.404 107V99H681.256C681.878 99 682.394 99.1133 682.803 99.3398C683.212 99.5664 683.518 99.8763 683.721 100.27C683.924 100.66 684.026 101.1 684.026 101.59C684.026 102.082 683.923 102.525 683.717 102.918C683.514 103.309 683.207 103.618 682.795 103.848C682.386 104.074 681.872 104.188 681.252 104.188H679.291V103.164H681.143C681.536 103.164 681.855 103.096 682.1 102.961C682.345 102.823 682.524 102.635 682.639 102.398C682.753 102.161 682.811 101.892 682.811 101.59C682.811 101.288 682.753 101.02 682.639 100.785C682.524 100.551 682.343 100.367 682.096 100.234C681.851 100.102 681.528 100.035 681.127 100.035H679.612V107H678.404ZM693.49 103C693.49 103.854 693.334 104.589 693.021 105.203C692.709 105.815 692.28 106.286 691.736 106.617C691.194 106.945 690.578 107.109 689.888 107.109C689.196 107.109 688.577 106.945 688.033 106.617C687.491 106.286 687.064 105.814 686.752 105.199C686.439 104.585 686.283 103.852 686.283 103C686.283 102.146 686.439 101.413 686.752 100.801C687.064 100.186 687.491 99.7148 688.033 99.3867C688.577 99.056 689.196 98.8906 689.888 98.8906C690.578 98.8906 691.194 99.056 691.736 99.3867C692.28 99.7148 692.709 100.186 693.021 100.801C693.334 101.413 693.49 102.146 693.49 103ZM692.295 103C692.295 102.349 692.189 101.801 691.978 101.355C691.77 100.908 691.483 100.569 691.119 100.34C690.757 100.108 690.347 99.9922 689.888 99.9922C689.427 99.9922 689.016 100.108 688.654 100.34C688.292 100.569 688.005 100.908 687.795 101.355C687.586 101.801 687.482 102.349 687.482 103C687.482 103.651 687.586 104.201 687.795 104.648C688.005 105.094 688.292 105.432 688.654 105.664C689.016 105.893 689.427 106.008 689.888 106.008C690.347 106.008 690.757 105.893 691.119 105.664C691.483 105.432 691.77 105.094 691.978 104.648C692.189 104.201 692.295 103.651 692.295 103ZM696.095 107V99H698.946C699.566 99 700.08 99.1068 700.489 99.3203C700.901 99.5339 701.208 99.8294 701.411 100.207C701.614 100.582 701.716 101.016 701.716 101.508C701.716 101.997 701.613 102.428 701.407 102.801C701.204 103.171 700.897 103.458 700.485 103.664C700.076 103.87 699.562 103.973 698.942 103.973H696.782V102.934H698.833C699.224 102.934 699.541 102.878 699.786 102.766C700.034 102.654 700.215 102.491 700.329 102.277C700.444 102.064 700.501 101.807 700.501 101.508C700.501 101.206 700.442 100.944 700.325 100.723C700.211 100.501 700.03 100.332 699.782 100.215C699.537 100.095 699.216 100.035 698.817 100.035H697.302V107H696.095ZM700.044 103.391L702.021 107H700.646L698.708 103.391H700.044ZM703.89 100.039V99H710.081V100.039H707.585V107H706.382V100.039H703.89Z" fill="#162839"/>
<path d="M660.753 141.5H659.608C659.54 141.171 659.422 140.881 659.252 140.632C659.086 140.383 658.883 140.174 658.643 140.004C658.406 139.832 658.143 139.703 657.854 139.616C657.564 139.53 657.263 139.487 656.949 139.487C656.376 139.487 655.858 139.632 655.393 139.921C654.931 140.21 654.564 140.637 654.29 141.2C654.019 141.763 653.884 142.454 653.884 143.273C653.884 144.091 654.019 144.782 654.29 145.346C654.564 145.909 654.931 146.335 655.393 146.624C655.858 146.914 656.376 147.058 656.949 147.058C657.263 147.058 657.564 147.015 657.854 146.929C658.143 146.843 658.406 146.715 658.643 146.546C658.883 146.373 659.086 146.163 659.252 145.913C659.422 145.661 659.54 145.372 659.608 145.045H660.753C660.667 145.529 660.51 145.961 660.282 146.343C660.054 146.724 659.771 147.049 659.433 147.317C659.094 147.581 658.714 147.783 658.292 147.922C657.874 148.06 657.426 148.129 656.949 148.129C656.143 148.129 655.425 147.932 654.798 147.538C654.17 147.144 653.676 146.584 653.316 145.858C652.956 145.132 652.776 144.27 652.776 143.273C652.776 142.276 652.956 141.414 653.316 140.688C653.676 139.961 654.17 139.401 654.798 139.007C655.425 138.613 656.143 138.416 656.949 138.416C657.426 138.416 657.874 138.485 658.292 138.624C658.714 138.762 659.094 138.966 659.433 139.233C659.771 139.498 660.054 139.821 660.282 140.203C660.51 140.581 660.667 141.014 660.753 141.5ZM671.88 143.273C671.88 144.27 671.7 145.132 671.34 145.858C670.98 146.584 670.486 147.144 669.858 147.538C669.23 147.932 668.513 148.129 667.707 148.129C666.901 148.129 666.183 147.932 665.556 147.538C664.928 147.144 664.434 146.584 664.074 145.858C663.714 145.132 663.534 144.27 663.534 143.273C663.534 142.276 663.714 141.414 664.074 140.688C664.434 139.961 664.928 139.401 665.556 139.007C666.183 138.613 666.901 138.416 667.707 138.416C668.513 138.416 669.23 138.613 669.858 139.007C670.486 139.401 670.98 139.961 671.34 140.688C671.7 141.414 671.88 142.276 671.88 143.273ZM670.772 143.273C670.772 142.454 670.635 141.763 670.361 141.2C670.091 140.637 669.723 140.21 669.258 139.921C668.796 139.632 668.279 139.487 667.707 139.487C667.134 139.487 666.616 139.632 666.151 139.921C665.689 140.21 665.322 140.637 665.048 141.2C664.777 141.763 664.642 142.454 664.642 143.273C664.642 144.091 664.777 144.782 665.048 145.346C665.322 145.909 665.689 146.335 666.151 146.624C666.616 146.914 667.134 147.058 667.707 147.058C668.279 147.058 668.796 146.914 669.258 146.624C669.723 146.335 670.091 145.909 670.361 145.346C670.635 144.782 670.772 144.091 670.772 143.273ZM682.602 138.545V148H681.494L676.342 140.577H676.25V148H675.105V138.545H676.213L681.384 145.987H681.476V138.545H682.602ZM685.676 139.561V138.545H692.767V139.561H689.794V148H688.649V139.561H685.676ZM695.117 148H693.917L697.389 138.545H698.571L702.042 148H700.842L698.017 140.041H697.943L695.117 148ZM695.561 144.307H700.399V145.322H695.561V144.307ZM711.978 141.5H710.834C710.766 141.171 710.647 140.881 710.478 140.632C710.312 140.383 710.109 140.174 709.869 140.004C709.632 139.832 709.369 139.703 709.079 139.616C708.79 139.53 708.488 139.487 708.174 139.487C707.602 139.487 707.083 139.632 706.619 139.921C706.157 140.21 705.789 140.637 705.515 141.2C705.245 141.763 705.109 142.454 705.109 143.273C705.109 144.091 705.245 144.782 705.515 145.346C705.789 145.909 706.157 146.335 706.619 146.624C707.083 146.914 707.602 147.058 708.174 147.058C708.488 147.058 708.79 147.015 709.079 146.929C709.369 146.843 709.632 146.715 709.869 146.546C710.109 146.373 710.312 146.163 710.478 145.913C710.647 145.661 710.766 145.372 710.834 145.045H711.978C711.892 145.529 711.735 145.961 711.508 146.343C711.28 146.724 710.997 147.049 710.658 147.317C710.32 147.581 709.939 147.783 709.518 147.922C709.099 148.06 708.651 148.129 708.174 148.129C707.368 148.129 706.651 147.932 706.023 147.538C705.395 147.144 704.901 146.584 704.541 145.858C704.181 145.132 704.001 144.27 704.001 143.273C704.001 142.276 704.181 141.414 704.541 140.688C704.901 139.961 705.395 139.401 706.023 139.007C706.651 138.613 707.368 138.416 708.174 138.416C708.651 138.416 709.099 138.485 709.518 138.624C709.939 138.762 710.32 138.966 710.658 139.233C710.997 139.498 711.28 139.821 711.508 140.203C711.735 140.581 711.892 141.014 711.978 141.5ZM714.611 139.561V138.545H721.702V139.561H718.729V148H717.584V139.561H714.611Z" fill="#635E55"/>
<path d="M658.315 176.909C658.26 176.441 658.035 176.078 657.641 175.82C657.247 175.561 656.764 175.432 656.192 175.432C655.773 175.432 655.407 175.5 655.093 175.635C654.782 175.77 654.539 175.957 654.364 176.194C654.191 176.431 654.105 176.7 654.105 177.001C654.105 177.254 654.165 177.471 654.285 177.652C654.408 177.831 654.565 177.98 654.756 178.1C654.947 178.217 655.147 178.314 655.356 178.391C655.565 178.465 655.758 178.525 655.933 178.571L656.893 178.83C657.14 178.894 657.414 178.983 657.715 179.097C658.02 179.211 658.311 179.367 658.588 179.564C658.868 179.757 659.099 180.007 659.28 180.311C659.462 180.616 659.553 180.99 659.553 181.433C659.553 181.944 659.419 182.406 659.151 182.818C658.886 183.231 658.498 183.558 657.988 183.801C657.48 184.045 656.863 184.166 656.136 184.166C655.459 184.166 654.873 184.057 654.377 183.838C653.885 183.62 653.497 183.315 653.214 182.924C652.934 182.533 652.776 182.08 652.739 181.562H653.92C653.951 181.92 654.071 182.215 654.281 182.449C654.493 182.68 654.761 182.852 655.084 182.966C655.41 183.077 655.761 183.132 656.136 183.132C656.573 183.132 656.966 183.061 657.314 182.92C657.661 182.775 657.937 182.575 658.14 182.32C658.343 182.061 658.445 181.759 658.445 181.415C658.445 181.101 658.357 180.845 658.181 180.648C658.006 180.451 657.775 180.291 657.489 180.168C657.203 180.045 656.893 179.937 656.561 179.845L655.398 179.513C654.659 179.3 654.074 178.997 653.643 178.603C653.213 178.209 652.997 177.694 652.997 177.057C652.997 176.527 653.14 176.066 653.426 175.672C653.716 175.275 654.104 174.967 654.59 174.749C655.079 174.527 655.625 174.416 656.229 174.416C656.838 174.416 657.38 174.525 657.854 174.744C658.328 174.959 658.703 175.255 658.98 175.63C659.26 176.006 659.408 176.432 659.423 176.909H658.315ZM662.735 184V174.545H663.88V178.756H668.921V174.545H670.066V184H668.921V179.771H663.88V184H662.735ZM674.803 174.545V184H673.658V174.545H674.803ZM678.398 184V174.545H681.593C682.335 174.545 682.941 174.679 683.412 174.947C683.886 175.212 684.237 175.57 684.464 176.023C684.692 176.475 684.806 176.98 684.806 177.537C684.806 178.094 684.692 178.6 684.464 179.056C684.24 179.511 683.892 179.874 683.421 180.145C682.95 180.413 682.347 180.547 681.611 180.547H679.322V179.531H681.575C682.082 179.531 682.49 179.444 682.798 179.268C683.106 179.093 683.329 178.856 683.467 178.557C683.609 178.256 683.68 177.915 683.68 177.537C683.68 177.158 683.609 176.82 683.467 176.521C683.329 176.223 683.104 175.989 682.793 175.82C682.482 175.647 682.07 175.561 681.556 175.561H679.543V184H678.398ZM687.95 184V174.545H691.145C691.887 174.545 692.493 174.679 692.964 174.947C693.438 175.212 693.789 175.57 694.016 176.023C694.244 176.475 694.358 176.98 694.358 177.537C694.358 178.094 694.244 178.6 694.016 179.056C693.792 179.511 693.444 179.874 692.973 180.145C692.502 180.413 691.899 180.547 691.163 180.547H688.874V179.531H691.126C691.634 179.531 692.042 179.444 692.35 179.268C692.658 179.093 692.881 178.856 693.019 178.557C693.161 178.256 693.232 177.915 693.232 177.537C693.232 177.158 693.161 176.82 693.019 176.521C692.881 176.223 692.656 175.989 692.345 175.82C692.034 175.647 691.622 175.561 691.108 175.561H689.095V184H687.95ZM698.647 174.545V184H697.502V174.545H698.647ZM709.74 174.545V184H708.632L703.48 176.577H703.388V184H702.243V174.545H703.351L708.521 181.987H708.613V174.545H709.74ZM719.794 177.5C719.692 177.189 719.558 176.911 719.392 176.664C719.229 176.415 719.034 176.203 718.806 176.027C718.581 175.852 718.326 175.718 718.04 175.626C717.753 175.533 717.439 175.487 717.098 175.487C716.538 175.487 716.028 175.632 715.57 175.921C715.111 176.21 714.747 176.637 714.476 177.2C714.205 177.763 714.069 178.454 714.069 179.273C714.069 180.091 714.206 180.782 714.48 181.346C714.754 181.909 715.125 182.335 715.593 182.624C716.061 182.914 716.587 183.058 717.172 183.058C717.713 183.058 718.19 182.943 718.603 182.712C719.018 182.478 719.341 182.149 719.572 181.724C719.806 181.296 719.923 180.793 719.923 180.214L720.274 180.288H717.43V179.273H721.031V180.288C721.031 181.067 720.865 181.744 720.533 182.32C720.203 182.895 719.748 183.341 719.166 183.658C718.587 183.972 717.923 184.129 717.172 184.129C716.335 184.129 715.599 183.932 714.965 183.538C714.334 183.144 713.842 182.584 713.488 181.858C713.137 181.132 712.962 180.27 712.962 179.273C712.962 178.525 713.062 177.852 713.262 177.255C713.465 176.655 713.751 176.144 714.12 175.723C714.49 175.301 714.927 174.978 715.431 174.753C715.936 174.529 716.492 174.416 717.098 174.416C717.596 174.416 718.061 174.492 718.492 174.642C718.926 174.79 719.312 175.001 719.651 175.275C719.992 175.546 720.277 175.87 720.505 176.249C720.733 176.624 720.89 177.041 720.976 177.5H719.794Z" fill="#635E55"/>
<path d="M653.145 220V210.545H656.339C657.078 210.545 657.684 210.672 658.158 210.924C658.632 211.173 658.983 211.516 659.211 211.953C659.439 212.391 659.553 212.888 659.553 213.445C659.553 214.002 659.439 214.496 659.211 214.926C658.983 215.357 658.634 215.696 658.163 215.942C657.692 216.185 657.09 216.307 656.358 216.307H653.773V215.273H656.321C656.826 215.273 657.232 215.199 657.54 215.051C657.851 214.903 658.075 214.694 658.214 214.423C658.355 214.149 658.426 213.823 658.426 213.445C658.426 213.066 658.355 212.735 658.214 212.452C658.072 212.169 657.846 211.95 657.535 211.797C657.224 211.64 656.813 211.561 656.303 211.561H654.29V220H653.145ZM657.595 215.753L659.922 220H658.592L656.303 215.753H657.595ZM662.76 220V210.545H668.466V211.561H663.905V214.756H668.171V215.771H663.905V218.984H668.54V220H662.76ZM671.313 211.561V210.545H678.404V211.561H675.431V220H674.286V211.561H671.313ZM687.675 210.545H688.82V216.805C688.82 217.452 688.668 218.029 688.363 218.537C688.061 219.041 687.635 219.44 687.084 219.732C686.533 220.022 685.887 220.166 685.145 220.166C684.404 220.166 683.757 220.022 683.206 219.732C682.656 219.44 682.228 219.041 681.923 218.537C681.621 218.029 681.471 217.452 681.471 216.805V210.545H682.616V216.713C682.616 217.175 682.717 217.586 682.92 217.946C683.123 218.303 683.413 218.584 683.788 218.79C684.167 218.994 684.619 219.095 685.145 219.095C685.672 219.095 686.124 218.994 686.503 218.79C686.881 218.584 687.17 218.303 687.371 217.946C687.574 217.586 687.675 217.175 687.675 216.713V210.545ZM692.406 220V210.545H695.601C696.34 210.545 696.946 210.672 697.42 210.924C697.894 211.173 698.245 211.516 698.472 211.953C698.7 212.391 698.814 212.888 698.814 213.445C698.814 214.002 698.7 214.496 698.472 214.926C698.245 215.357 697.895 215.696 697.425 215.942C696.954 216.185 696.352 216.307 695.619 216.307H693.034V215.273H695.583C696.087 215.273 696.494 215.199 696.801 215.051C697.112 214.903 697.337 214.694 697.475 214.423C697.617 214.149 697.688 213.823 697.688 213.445C697.688 213.066 697.617 212.735 697.475 212.452C697.334 212.169 697.108 211.95 696.797 211.797C696.486 211.64 696.075 211.561 695.564 211.561H693.551V220H692.406ZM696.857 215.753L699.183 220H697.854L695.564 215.753H696.857ZM709.519 210.545V220H708.411L703.259 212.577H703.167V220H702.022V210.545H703.13L708.3 217.987H708.393V210.545H709.519ZM718.28 212.909C718.225 212.441 718 212.078 717.606 211.82C717.212 211.561 716.729 211.432 716.157 211.432C715.738 211.432 715.372 211.5 715.058 211.635C714.747 211.77 714.504 211.957 714.329 212.194C714.156 212.431 714.07 212.7 714.07 213.001C714.07 213.254 714.13 213.471 714.25 213.652C714.373 213.831 714.53 213.98 714.721 214.1C714.912 214.217 715.112 214.314 715.321 214.391C715.53 214.465 715.723 214.525 715.898 214.571L716.859 214.83C717.105 214.894 717.379 214.983 717.68 215.097C717.985 215.211 718.276 215.367 718.553 215.564C718.833 215.757 719.064 216.007 719.245 216.311C719.427 216.616 719.518 216.99 719.518 217.433C719.518 217.944 719.384 218.406 719.116 218.818C718.851 219.231 718.463 219.558 717.953 219.801C717.445 220.045 716.828 220.166 716.101 220.166C715.424 220.166 714.838 220.057 714.343 219.838C713.85 219.62 713.462 219.315 713.179 218.924C712.899 218.533 712.741 218.08 712.704 217.562H713.885C713.916 217.92 714.036 218.215 714.246 218.449C714.458 218.68 714.726 218.852 715.049 218.966C715.375 219.077 715.726 219.132 716.101 219.132C716.538 219.132 716.931 219.061 717.279 218.92C717.626 218.775 717.902 218.575 718.105 218.32C718.308 218.061 718.41 217.759 718.41 217.415C718.41 217.101 718.322 216.845 718.147 216.648C717.971 216.451 717.74 216.291 717.454 216.168C717.168 216.045 716.859 215.937 716.526 215.845L715.363 215.513C714.624 215.3 714.039 214.997 713.609 214.603C713.178 214.209 712.962 213.694 712.962 213.057C712.962 212.527 713.105 212.066 713.392 211.672C713.681 211.275 714.069 210.967 714.555 210.749C715.044 210.527 715.591 210.416 716.194 210.416C716.803 210.416 717.345 210.525 717.819 210.744C718.293 210.959 718.668 211.255 718.945 211.63C719.225 212.006 719.373 212.432 719.388 212.909H718.28Z" fill="#635E55"/>
<path d="M962.879 107V99H964.086V105.961H967.711V107H962.879ZM970.188 107V99H975.204V100.039H971.395V102.477H974.942V103.512H971.395V105.961H975.25V107H970.188ZM983.33 101.527C983.254 101.29 983.153 101.078 983.025 100.891C982.9 100.701 982.75 100.539 982.576 100.406C982.401 100.271 982.202 100.168 981.978 100.098C981.757 100.027 981.513 99.9922 981.248 99.9922C980.797 99.9922 980.391 100.108 980.029 100.34C979.667 100.572 979.381 100.911 979.17 101.359C978.961 101.805 978.857 102.35 978.857 102.996C978.857 103.645 978.963 104.193 979.174 104.641C979.385 105.089 979.674 105.428 980.041 105.66C980.408 105.892 980.826 106.008 981.295 106.008C981.73 106.008 982.109 105.919 982.431 105.742C982.757 105.565 983.008 105.315 983.185 104.992C983.365 104.667 983.455 104.284 983.455 103.844L983.767 103.902H981.478V102.906H984.623V103.816C984.623 104.488 984.48 105.072 984.193 105.566C983.909 106.059 983.516 106.439 983.013 106.707C982.513 106.975 981.941 107.109 981.295 107.109C980.571 107.109 979.935 106.943 979.388 106.609C978.844 106.276 978.42 105.803 978.115 105.191C977.81 104.577 977.658 103.848 977.658 103.004C977.658 102.366 977.747 101.793 977.924 101.285C978.101 100.777 978.349 100.346 978.67 99.9922C978.993 99.6354 979.372 99.3633 979.806 99.1758C980.244 98.9857 980.722 98.8906 981.24 98.8906C981.672 98.8906 982.075 98.9544 982.447 99.082C982.822 99.2096 983.155 99.3906 983.447 99.625C983.741 99.8594 983.985 100.138 984.178 100.461C984.37 100.781 984.5 101.137 984.568 101.527H983.33ZM987.684 107H986.403L989.281 99H990.676L993.555 107H992.274L990.012 100.453H989.949L987.684 107ZM987.899 103.867H992.055V104.883H987.899V103.867ZM995.81 107V99H997.017V105.961H1000.64V107H995.81Z" fill="#162839"/>
<path d="M963.145 148V138.545H968.814V139.561H964.29V142.756H968.389V143.771H964.29V148H963.145ZM971.282 148H970.082L973.553 138.545H974.735L978.207 148H977.006L974.181 140.041H974.107L971.282 148ZM971.725 144.307H976.563V145.322H971.725V144.307ZM983.97 145.045H985.225L986.278 146.43L986.555 146.8L988.124 148.886H986.869L985.835 147.501L985.576 147.151L983.97 145.045ZM988.512 143.273C988.512 144.27 988.332 145.132 987.972 145.858C987.612 146.584 987.118 147.144 986.49 147.538C985.862 147.932 985.145 148.129 984.339 148.129C983.533 148.129 982.815 147.932 982.188 147.538C981.56 147.144 981.066 146.584 980.706 145.858C980.346 145.132 980.166 144.27 980.166 143.273C980.166 142.276 980.346 141.414 980.706 140.688C981.066 139.961 981.56 139.401 982.188 139.007C982.815 138.613 983.533 138.416 984.339 138.416C985.145 138.416 985.862 138.613 986.49 139.007C987.118 139.401 987.612 139.961 987.972 140.688C988.332 141.414 988.512 142.276 988.512 143.273ZM987.404 143.273C987.404 142.454 987.267 141.763 986.993 141.2C986.723 140.637 986.355 140.21 985.89 139.921C985.428 139.632 984.911 139.487 984.339 139.487C983.766 139.487 983.248 139.632 982.783 139.921C982.322 140.21 981.954 140.637 981.68 141.2C981.409 141.763 981.274 142.454 981.274 143.273C981.274 144.091 981.409 144.782 981.68 145.346C981.954 145.909 982.322 146.335 982.783 146.624C983.248 146.914 983.766 147.058 984.339 147.058C984.911 147.058 985.428 146.914 985.89 146.624C986.355 146.335 986.723 145.909 986.993 145.346C987.267 144.782 987.404 144.091 987.404 143.273Z" fill="#635E55"/>
<path d="M963.145 184V174.545H966.339C967.081 174.545 967.688 174.679 968.158 174.947C968.632 175.212 968.983 175.57 969.211 176.023C969.439 176.475 969.553 176.98 969.553 177.537C969.553 178.094 969.439 178.6 969.211 179.056C968.986 179.511 968.638 179.874 968.168 180.145C967.697 180.413 967.094 180.547 966.358 180.547H964.068V179.531H966.321C966.829 179.531 967.237 179.444 967.544 179.268C967.852 179.093 968.075 178.856 968.214 178.557C968.355 178.256 968.426 177.915 968.426 177.537C968.426 177.158 968.355 176.82 968.214 176.521C968.075 176.223 967.851 175.989 967.54 175.82C967.229 175.647 966.817 175.561 966.303 175.561H964.29V184H963.145ZM972.697 184V174.545H975.891C976.63 174.545 977.236 174.672 977.71 174.924C978.184 175.173 978.535 175.516 978.763 175.953C978.991 176.391 979.105 176.888 979.105 177.445C979.105 178.002 978.991 178.496 978.763 178.926C978.535 179.357 978.186 179.696 977.715 179.942C977.244 180.185 976.642 180.307 975.91 180.307H973.325V179.273H975.873C976.378 179.273 976.784 179.199 977.092 179.051C977.403 178.903 977.627 178.694 977.766 178.423C977.907 178.149 977.978 177.823 977.978 177.445C977.978 177.066 977.907 176.735 977.766 176.452C977.624 176.169 977.398 175.95 977.087 175.797C976.776 175.64 976.365 175.561 975.855 175.561H973.842V184H972.697ZM977.147 179.753L979.474 184H978.144L975.855 179.753H977.147ZM983.457 174.545V184H982.312V174.545H983.457ZM987.44 174.545L990.247 182.504H990.358L993.165 174.545H994.365L990.894 184H989.712L986.24 174.545H987.44ZM996.713 184H995.513L998.984 174.545H1000.17L1003.64 184H1002.44L999.612 176.041H999.538L996.713 184ZM997.156 180.307H1001.99V181.322H997.156V180.307ZM1013.57 177.5H1012.43C1012.36 177.171 1012.24 176.881 1012.07 176.632C1011.91 176.383 1011.7 176.174 1011.46 176.004C1011.23 175.832 1010.96 175.703 1010.67 175.616C1010.39 175.53 1010.08 175.487 1009.77 175.487C1009.2 175.487 1008.68 175.632 1008.21 175.921C1007.75 176.21 1007.38 176.637 1007.11 177.2C1006.84 177.763 1006.7 178.454 1006.7 179.273C1006.7 180.091 1006.84 180.782 1007.11 181.346C1007.38 181.909 1007.75 182.335 1008.21 182.624C1008.68 182.914 1009.2 183.058 1009.77 183.058C1010.08 183.058 1010.39 183.015 1010.67 182.929C1010.96 182.843 1011.23 182.715 1011.46 182.546C1011.7 182.373 1011.91 182.163 1012.07 181.913C1012.24 181.661 1012.36 181.372 1012.43 181.045H1013.57C1013.49 181.529 1013.33 181.961 1013.1 182.343C1012.88 182.724 1012.59 183.049 1012.25 183.317C1011.92 183.581 1011.54 183.783 1011.11 183.922C1010.69 184.06 1010.25 184.129 1009.77 184.129C1008.96 184.129 1008.25 183.932 1007.62 183.538C1006.99 183.144 1006.5 182.584 1006.14 181.858C1005.78 181.132 1005.6 180.27 1005.6 179.273C1005.6 178.276 1005.78 177.414 1006.14 176.688C1006.5 175.961 1006.99 175.401 1007.62 175.007C1008.25 174.613 1008.96 174.416 1009.77 174.416C1010.25 174.416 1010.69 174.485 1011.11 174.624C1011.54 174.762 1011.92 174.966 1012.25 175.233C1012.59 175.498 1012.88 175.821 1013.1 176.203C1013.33 176.581 1013.49 177.014 1013.57 177.5ZM1015.91 174.545H1017.22L1019.84 178.959H1019.96L1022.58 174.545H1023.89L1020.47 180.104V184H1019.33V180.104L1015.91 174.545ZM1031.63 184V174.545H1034.82C1035.56 174.545 1036.17 174.679 1036.64 174.947C1037.11 175.212 1037.46 175.57 1037.69 176.023C1037.92 176.475 1038.03 176.98 1038.03 177.537C1038.03 178.094 1037.92 178.6 1037.69 179.056C1037.47 179.511 1037.12 179.874 1036.65 180.145C1036.18 180.413 1035.57 180.547 1034.84 180.547H1032.55V179.531H1034.8C1035.31 179.531 1035.72 179.444 1036.03 179.268C1036.33 179.093 1036.56 178.856 1036.69 178.557C1036.84 178.256 1036.91 177.915 1036.91 177.537C1036.91 177.158 1036.84 176.82 1036.69 176.521C1036.56 176.223 1036.33 175.989 1036.02 175.82C1035.71 175.647 1035.3 175.561 1034.78 175.561H1032.77V184H1031.63ZM1049.16 179.273C1049.16 180.27 1048.98 181.132 1048.62 181.858C1048.25 182.584 1047.76 183.144 1047.13 183.538C1046.51 183.932 1045.79 184.129 1044.98 184.129C1044.18 184.129 1043.46 183.932 1042.83 183.538C1042.2 183.144 1041.71 182.584 1041.35 181.858C1040.99 181.132 1040.81 180.27 1040.81 179.273C1040.81 178.276 1040.99 177.414 1041.35 176.688C1041.71 175.961 1042.2 175.401 1042.83 175.007C1043.46 174.613 1044.18 174.416 1044.98 174.416C1045.79 174.416 1046.51 174.613 1047.13 175.007C1047.76 175.401 1048.25 175.961 1048.62 176.688C1048.98 177.414 1049.16 178.276 1049.16 179.273ZM1048.05 179.273C1048.05 178.454 1047.91 177.763 1047.64 177.2C1047.37 176.637 1047 176.21 1046.53 175.921C1046.07 175.632 1045.55 175.487 1044.98 175.487C1044.41 175.487 1043.89 175.632 1043.43 175.921C1042.96 176.21 1042.6 176.637 1042.32 177.2C1042.05 177.763 1041.92 178.454 1041.92 179.273C1041.92 180.091 1042.05 180.782 1042.32 181.346C1042.6 181.909 1042.96 182.335 1043.43 182.624C1043.89 182.914 1044.41 183.058 1044.98 183.058C1045.55 183.058 1046.07 182.914 1046.53 182.624C1047 182.335 1047.37 181.909 1047.64 181.346C1047.91 180.782 1048.05 180.091 1048.05 179.273ZM1052.38 184V174.545H1053.53V182.984H1057.92V184H1052.38ZM1062.14 174.545V184H1060.99V174.545H1062.14ZM1073.34 177.5H1072.2C1072.13 177.171 1072.01 176.881 1071.84 176.632C1071.67 176.383 1071.47 176.174 1071.23 176.004C1070.99 175.832 1070.73 175.703 1070.44 175.616C1070.15 175.53 1069.85 175.487 1069.54 175.487C1068.96 175.487 1068.45 175.632 1067.98 175.921C1067.52 176.21 1067.15 176.637 1066.88 177.2C1066.61 177.763 1066.47 178.454 1066.47 179.273C1066.47 180.091 1066.61 180.782 1066.88 181.346C1067.15 181.909 1067.52 182.335 1067.98 182.624C1068.45 182.914 1068.96 183.058 1069.54 183.058C1069.85 183.058 1070.15 183.015 1070.44 182.929C1070.73 182.843 1070.99 182.715 1071.23 182.546C1071.47 182.373 1071.67 182.163 1071.84 181.913C1072.01 181.661 1072.13 181.372 1072.2 181.045H1073.34C1073.25 181.529 1073.1 181.961 1072.87 182.343C1072.64 182.724 1072.36 183.049 1072.02 183.317C1071.68 183.581 1071.3 183.783 1070.88 183.922C1070.46 184.06 1070.01 184.129 1069.54 184.129C1068.73 184.129 1068.01 183.932 1067.39 183.538C1066.76 183.144 1066.26 182.584 1065.9 181.858C1065.54 181.132 1065.36 180.27 1065.36 179.273C1065.36 178.276 1065.54 177.414 1065.9 176.688C1066.26 175.961 1066.76 175.401 1067.39 175.007C1068.01 174.613 1068.73 174.416 1069.54 174.416C1070.01 174.416 1070.46 174.485 1070.88 174.624C1071.3 174.762 1071.68 174.966 1072.02 175.233C1072.36 175.498 1072.64 175.821 1072.87 176.203C1073.1 176.581 1073.25 177.014 1073.34 177.5ZM1075.68 174.545H1076.99L1079.61 178.959H1079.72L1082.34 174.545H1083.66L1080.24 180.104V184H1079.09V180.104L1075.68 174.545Z" fill="#635E55"/>
<mask id="path-16-inside-2_1_2582" fill="white">
<path d="M0 324.41H1280V373.41H0V324.41Z"/>
</mask>
<path d="M0 324.41V325.41H1280V324.41V323.41H0V324.41Z" fill="#C4C6CD" mask="url(#path-16-inside-2_1_2582)"/>
<path d="M35.25 357.687C35.25 357.18 35.3727 356.718 35.6182 356.304C35.8636 355.889 36.1947 355.559 36.6116 355.313C37.0284 355.068 37.4886 354.945 37.9922 354.945C38.4323 354.945 38.8375 355.039 39.2078 355.228C39.578 355.416 39.8848 355.671 40.1282 355.993C40.3715 356.314 40.5228 356.68 40.582 357.091H39.4648C39.4014 356.778 39.2289 356.519 38.9475 356.316C38.6661 356.113 38.3477 356.012 37.9922 356.012C37.6875 356.012 37.4082 356.087 37.1543 356.237C36.9004 356.387 36.6973 356.589 36.5449 356.843C36.3926 357.097 36.3164 357.378 36.3164 357.687C36.3164 357.992 36.3926 358.27 36.5449 358.522C36.6973 358.774 36.9004 358.975 37.1543 359.125C37.4082 359.275 37.6875 359.35 37.9922 359.35C38.3477 359.35 38.6492 359.25 38.8967 359.049C39.1443 358.848 39.2998 358.589 39.3633 358.271H40.4805C40.4255 358.682 40.2837 359.05 40.0552 359.376C39.8267 359.702 39.5357 359.959 39.1824 360.147C38.829 360.335 38.4323 360.43 37.9922 360.43C37.4886 360.43 37.0284 360.306 36.6116 360.058C36.1947 359.811 35.8636 359.48 35.6182 359.065C35.3727 358.65 35.25 358.191 35.25 357.687ZM37.9414 362.556C37.2686 362.556 36.638 362.43 36.0498 362.178C35.4616 361.927 34.9432 361.576 34.4946 361.128C34.0461 360.679 33.6959 360.161 33.4441 359.573C33.1923 358.984 33.0664 358.354 33.0664 357.681C33.0664 357.008 33.1923 356.378 33.4441 355.789C33.6959 355.201 34.0461 354.683 34.4946 354.234C34.9432 353.786 35.4616 353.436 36.0498 353.184C36.638 352.932 37.2686 352.806 37.9414 352.806C38.6143 352.806 39.2448 352.932 39.833 353.184C40.4212 353.436 40.9396 353.786 41.3882 354.234C41.8368 354.683 42.1869 355.201 42.4387 355.789C42.6905 356.378 42.8164 357.008 42.8164 357.681C42.8164 358.354 42.6905 358.984 42.4387 359.573C42.1869 360.161 41.8368 360.679 41.3882 361.128C40.9396 361.576 40.4212 361.927 39.833 362.178C39.2448 362.43 38.6143 362.556 37.9414 362.556ZM37.9414 361.452C38.4619 361.452 38.9496 361.354 39.4045 361.16C39.8595 360.965 40.2604 360.694 40.6074 360.347C40.9544 360 41.2253 359.599 41.4199 359.144C41.6146 358.689 41.7119 358.202 41.7119 357.681C41.7119 357.161 41.6146 356.673 41.4199 356.218C41.2253 355.763 40.9544 355.362 40.6074 355.015C40.2604 354.668 39.8595 354.397 39.4045 354.203C38.9496 354.008 38.4619 353.911 37.9414 353.911C37.4209 353.911 36.9332 354.008 36.4783 354.203C36.0234 354.397 35.6224 354.668 35.2754 355.015C34.9284 355.362 34.6576 355.763 34.4629 356.218C34.2682 356.673 34.1709 357.161 34.1709 357.681C34.1709 358.202 34.2682 358.689 34.4629 359.144C34.6576 359.599 34.9284 360 35.2754 360.347C35.6224 360.694 36.0234 360.965 36.4783 361.16C36.9332 361.354 37.4209 361.452 37.9414 361.452ZM51.1166 362.41V361.54L54.2587 358.132C54.6099 357.751 54.9019 357.417 55.1347 357.129C55.3674 356.841 55.543 356.567 55.6615 356.307C55.78 356.047 55.8393 355.77 55.8393 355.478C55.8393 355.148 55.761 354.863 55.6044 354.621C55.4478 354.38 55.2362 354.195 54.9696 354.066C54.703 353.937 54.4005 353.872 54.0619 353.872C53.7022 353.872 53.3901 353.945 53.1256 354.091C52.8611 354.237 52.657 354.443 52.5131 354.707C52.3692 354.972 52.2973 355.282 52.2973 355.637H51.142C51.142 355.078 51.2711 354.588 51.5292 354.164C51.7873 353.741 52.1386 353.412 52.5829 353.177C53.0272 352.943 53.5308 352.825 54.0937 352.825C54.6565 352.825 55.1548 352.943 55.5885 353.177C56.0223 353.412 56.3629 353.729 56.6105 354.126C56.8581 354.524 56.9818 354.971 56.9818 355.466C56.9818 355.808 56.9205 356.142 56.7978 356.465C56.675 356.789 56.4592 357.156 56.1503 357.567C55.8414 357.977 55.4076 358.479 54.849 359.071L52.7797 361.274V361.35H57.1405V362.41H51.1166ZM63.4679 362.537C62.7654 362.537 62.1666 362.347 61.6715 361.966C61.1764 361.585 60.7976 361.034 60.5353 360.312C60.2729 359.591 60.1417 358.716 60.1417 357.687C60.1417 356.663 60.2739 355.789 60.5384 355.066C60.8029 354.342 61.1827 353.788 61.6778 353.403C62.1729 353.018 62.7696 352.825 63.4679 352.825C64.1661 352.825 64.7639 353.018 65.2611 353.403C65.7583 353.788 66.1381 354.342 66.4005 355.066C66.6629 355.789 66.794 356.663 66.794 357.687C66.794 358.711 66.6639 359.585 66.4037 360.309C66.1434 361.033 65.7657 361.585 65.2706 361.966C64.7755 362.347 64.1746 362.537 63.4679 362.537ZM63.4679 361.483C63.9291 361.483 64.3206 361.333 64.6422 361.033C64.9638 360.732 65.2092 360.299 65.3785 359.734C65.5478 359.17 65.6324 358.487 65.6324 357.687C65.6324 356.883 65.5478 356.197 65.3785 355.628C65.2092 355.058 64.9638 354.624 64.6422 354.323C64.3206 354.023 63.9291 353.872 63.4679 353.872C63.0066 353.872 62.6152 354.024 62.2936 354.326C61.9719 354.629 61.7265 355.064 61.5572 355.631C61.388 356.198 61.3033 356.883 61.3033 357.687C61.3033 358.487 61.388 359.17 61.5572 359.734C61.7265 360.299 61.9719 360.732 62.2936 361.033C62.6152 361.333 63.0066 361.483 63.4679 361.483ZM69.846 362.41V361.54L72.9881 358.132C73.3393 357.751 73.6313 357.417 73.8641 357.129C74.0968 356.841 74.2724 356.567 74.3909 356.307C74.5094 356.047 74.5687 355.77 74.5687 355.478C74.5687 355.148 74.4904 354.863 74.3338 354.621C74.1772 354.38 73.9656 354.195 73.699 354.066C73.4324 353.937 73.1299 353.872 72.7913 353.872C72.4316 353.872 72.1195 353.945 71.855 354.091C71.5905 354.237 71.3864 354.443 71.2425 354.707C71.0986 354.972 71.0267 355.282 71.0267 355.637H69.8714C69.8714 355.078 70.0005 354.588 70.2586 354.164C70.5167 353.741 70.868 353.412 71.3123 353.177C71.7566 352.943 72.2602 352.825 72.823 352.825C73.3859 352.825 73.8842 352.943 74.3179 353.177C74.7517 353.412 75.0923 353.729 75.3399 354.126C75.5875 354.524 75.7112 354.971 75.7112 355.466C75.7112 355.808 75.6499 356.142 75.5271 356.465C75.4044 356.789 75.1886 357.156 74.8797 357.567C74.5708 357.977 74.137 358.479 73.5784 359.071L71.5091 361.274V361.35H75.8699V362.41H69.846ZM78.6553 360.487V359.503L82.7939 352.952H83.5239V354.463H83.0352L79.9438 359.35V359.427H85.5425V360.487H78.6553ZM83.105 362.41V360.195L83.1113 359.731V352.952H84.2603V362.41H83.105ZM93.6903 362.41V352.952H95.4042L97.7338 358.919C97.7888 359.058 97.8512 359.233 97.921 359.443C97.9909 359.652 98.0649 359.879 98.1432 360.125C98.2215 360.37 98.2966 360.615 98.3686 360.858C98.4405 361.101 98.504 361.327 98.559 361.534H98.2924C98.3516 361.339 98.4172 361.123 98.4892 360.883C98.5611 360.644 98.6362 360.401 98.7145 360.153C98.7928 359.906 98.8679 359.674 98.9398 359.458C99.0118 359.243 99.0753 359.063 99.1303 358.919L101.428 352.952H103.148V362.41H101.961V357.008C101.961 356.814 101.962 356.591 101.965 356.342C101.967 356.092 101.971 355.83 101.977 355.555C101.984 355.28 101.99 355 101.996 354.717C102.003 354.433 102.008 354.158 102.012 353.891H102.114C102.025 354.183 101.931 354.481 101.831 354.783C101.732 355.086 101.634 355.378 101.539 355.659C101.444 355.941 101.354 356.198 101.269 356.431C101.185 356.663 101.113 356.856 101.054 357.008L98.9398 362.41H97.8925L95.747 357.008C95.6877 356.86 95.6179 356.673 95.5375 356.446C95.4571 356.22 95.3693 355.968 95.2741 355.691C95.1789 355.414 95.0805 355.122 94.9789 354.815C94.8773 354.508 94.7737 354.2 94.6679 353.891H94.7821C94.7906 354.128 94.798 354.384 94.8043 354.66C94.8107 354.935 94.816 355.213 94.8202 355.494C94.8244 355.776 94.8287 356.047 94.8329 356.307C94.8371 356.567 94.8393 356.801 94.8393 357.008V362.41H93.6903ZM105.921 362.41L109.355 352.952H110.752L114.23 362.41H112.961L110.955 356.799C110.832 356.452 110.689 356.019 110.526 355.501C110.363 354.982 110.165 354.321 109.933 353.517H110.161C109.933 354.329 109.735 354.999 109.568 355.526C109.401 356.053 109.262 356.477 109.152 356.799L107.203 362.41H105.921ZM107.648 359.769V358.716H112.504V359.769H107.648ZM118.209 352.952V362.41H117.003V352.952H118.209ZM124.822 362.575C124.14 362.575 123.549 362.465 123.048 362.245C122.546 362.025 122.154 361.717 121.87 361.321C121.587 360.926 121.426 360.463 121.388 359.934H122.625C122.659 360.29 122.78 360.583 122.987 360.814C123.195 361.044 123.46 361.216 123.784 361.328C124.108 361.44 124.454 361.496 124.822 361.496C125.249 361.496 125.633 361.426 125.974 361.286C126.315 361.147 126.584 360.95 126.783 360.696C126.982 360.442 127.082 360.148 127.082 359.814C127.082 359.509 126.996 359.262 126.824 359.071C126.653 358.881 126.426 358.724 126.142 358.601C125.859 358.479 125.548 358.371 125.209 358.278L124.066 357.954C123.305 357.738 122.712 357.429 122.289 357.027C121.866 356.625 121.654 356.111 121.654 355.485C121.654 354.952 121.798 354.485 122.086 354.085C122.374 353.685 122.763 353.375 123.254 353.155C123.745 352.935 124.295 352.825 124.904 352.825C125.526 352.825 126.076 352.935 126.555 353.155C127.033 353.375 127.411 353.675 127.688 354.053C127.965 354.432 128.112 354.861 128.129 355.339H126.948C126.893 354.877 126.673 354.521 126.288 354.269C125.903 354.017 125.429 353.891 124.866 353.891C124.46 353.891 124.103 353.958 123.797 354.091C123.49 354.225 123.252 354.407 123.083 354.637C122.913 354.868 122.829 355.131 122.829 355.428C122.829 355.758 122.931 356.023 123.136 356.224C123.342 356.425 123.585 356.582 123.866 356.694C124.148 356.806 124.403 356.894 124.631 356.957L125.577 357.218C125.831 357.285 126.111 357.378 126.418 357.497C126.725 357.615 127.018 357.773 127.297 357.97C127.577 358.167 127.806 358.416 127.986 358.719C128.166 359.021 128.256 359.393 128.256 359.833C128.256 360.349 128.122 360.815 127.853 361.229C127.584 361.644 127.194 361.972 126.682 362.213C126.17 362.454 125.55 362.575 124.822 362.575ZM135.269 362.537C134.46 362.537 133.74 362.341 133.107 361.95C132.475 361.558 131.976 361 131.613 360.274C131.249 359.548 131.067 358.686 131.067 357.687C131.067 356.684 131.249 355.82 131.613 355.094C131.976 354.369 132.475 353.809 133.107 353.415C133.74 353.022 134.46 352.825 135.269 352.825C136.077 352.825 136.796 353.022 137.427 353.415C138.057 353.809 138.554 354.369 138.915 355.094C139.277 355.82 139.458 356.684 139.458 357.687C139.458 358.686 139.277 359.548 138.915 360.274C138.554 361 138.057 361.558 137.427 361.95C136.796 362.341 136.077 362.537 135.269 362.537ZM135.269 361.42C135.832 361.42 136.34 361.277 136.795 360.991C137.25 360.706 137.612 360.285 137.881 359.728C138.15 359.172 138.284 358.491 138.284 357.687C138.284 356.875 138.15 356.19 137.881 355.634C137.612 355.077 137.25 354.656 136.795 354.371C136.34 354.085 135.832 353.942 135.269 353.942C134.702 353.942 134.19 354.086 133.733 354.374C133.276 354.662 132.913 355.084 132.644 355.64C132.375 356.197 132.241 356.879 132.241 357.687C132.241 358.491 132.375 359.171 132.644 359.725C132.913 360.279 133.276 360.7 133.733 360.988C134.19 361.276 134.702 361.42 135.269 361.42ZM142.675 362.41V352.952H144.097L147.944 359.001C148.045 359.158 148.168 359.359 148.312 359.604C148.456 359.85 148.611 360.127 148.778 360.436C148.946 360.745 149.11 361.075 149.27 361.426H149.099C149.061 361.062 149.033 360.714 149.017 360.382C149 360.05 148.989 359.744 148.985 359.465C148.981 359.185 148.978 358.948 148.978 358.754V352.952H150.184V362.41H148.75L145.322 357.027C145.166 356.778 145.008 356.52 144.849 356.256C144.691 355.991 144.51 355.678 144.307 355.317C144.103 354.955 143.852 354.507 143.551 353.974H143.773C143.794 354.444 143.814 354.877 143.83 355.275C143.847 355.673 143.861 356.02 143.872 356.316C143.882 356.613 143.888 356.845 143.888 357.015V362.41H142.675ZM154.5 362.493C154.263 362.493 154.061 362.409 153.893 362.242C153.726 362.075 153.643 361.873 153.643 361.636C153.643 361.399 153.726 361.197 153.893 361.029C154.061 360.862 154.263 360.779 154.5 360.779C154.737 360.779 154.939 360.862 155.106 361.029C155.273 361.197 155.357 361.399 155.357 361.636C155.357 361.873 155.273 362.075 155.106 362.242C154.939 362.409 154.737 362.493 154.5 362.493ZM162.958 362.41L166.393 352.952H167.789L171.268 362.41H169.998L167.992 356.799C167.869 356.452 167.727 356.019 167.564 355.501C167.401 354.982 167.203 354.321 166.97 353.517H167.199C166.97 354.329 166.772 354.999 166.605 355.526C166.438 356.053 166.299 356.477 166.189 356.799L164.241 362.41H162.958ZM164.685 359.769V358.716H169.541V359.769H164.685ZM174.04 362.41V352.952H175.246V361.344H179.626V362.41H174.04ZM182.691 362.41V352.952H183.897V361.344H188.277V362.41H182.691ZM196.298 362.41V352.952H199.535C200.271 352.952 200.877 353.078 201.354 353.33C201.83 353.582 202.183 353.927 202.414 354.368C202.644 354.808 202.76 355.309 202.76 355.872C202.76 356.435 202.644 356.932 202.414 357.364C202.183 357.795 201.831 358.133 201.357 358.376C200.883 358.619 200.278 358.741 199.541 358.741H196.971V357.668H199.484C199.984 357.668 200.384 357.595 200.687 357.449C200.99 357.303 201.211 357.096 201.35 356.827C201.49 356.559 201.56 356.24 201.56 355.872C201.56 355.495 201.49 355.168 201.35 354.891C201.211 354.614 200.989 354.398 200.684 354.244C200.379 354.089 199.975 354.012 199.471 354.012H197.504V362.41H196.298ZM201.731 362.41L199.446 358.151H200.804L203.128 362.41H201.731ZM207.17 352.952V362.41H205.964V352.952H207.17ZM214.621 362.537C213.779 362.537 213.04 362.34 212.405 361.947C211.771 361.553 211.276 360.993 210.92 360.268C210.565 359.542 210.387 358.682 210.387 357.687C210.387 356.684 210.565 355.82 210.92 355.094C211.276 354.369 211.766 353.809 212.393 353.415C213.019 353.022 213.736 352.825 214.545 352.825C215.044 352.825 215.511 352.899 215.944 353.047C216.378 353.195 216.766 353.407 217.109 353.682C217.452 353.957 217.736 354.284 217.963 354.663C218.189 355.041 218.345 355.459 218.429 355.916H217.185C217.088 355.612 216.959 355.339 216.798 355.098C216.637 354.856 216.446 354.649 216.224 354.475C216.001 354.302 215.751 354.17 215.471 354.079C215.192 353.988 214.885 353.942 214.551 353.942C213.997 353.942 213.493 354.085 213.04 354.371C212.587 354.656 212.228 355.077 211.961 355.634C211.695 356.19 211.561 356.875 211.561 357.687C211.561 358.491 211.696 359.171 211.964 359.725C212.233 360.279 212.598 360.7 213.059 360.988C213.521 361.276 214.041 361.42 214.621 361.42C215.154 361.42 215.624 361.307 216.03 361.08C216.436 360.854 216.753 360.532 216.979 360.115C217.205 359.699 217.319 359.207 217.319 358.64L217.68 358.709H214.868V357.656H218.499V358.69C218.499 359.473 218.332 360.152 217.998 360.728C217.663 361.303 217.205 361.749 216.623 362.064C216.042 362.379 215.374 362.537 214.621 362.537ZM221.754 362.41V352.952H222.96V357.04H227.924V352.952H229.13V362.41H227.924V358.106H222.96V362.41H221.754ZM232.195 354.018V352.952H239.342V354.018H236.378V362.41H235.172V354.018H232.195ZM245.435 362.575C244.754 362.575 244.162 362.465 243.661 362.245C243.159 362.025 242.767 361.717 242.483 361.321C242.2 360.926 242.039 360.463 242.001 359.934H243.239C243.272 360.29 243.393 360.583 243.6 360.814C243.808 361.044 244.073 361.216 244.397 361.328C244.721 361.44 245.067 361.496 245.435 361.496C245.862 361.496 246.246 361.426 246.587 361.286C246.928 361.147 247.197 360.95 247.396 360.696C247.595 360.442 247.695 360.148 247.695 359.814C247.695 359.509 247.609 359.262 247.438 359.071C247.266 358.881 247.039 358.724 246.755 358.601C246.472 358.479 246.161 358.371 245.822 358.278L244.679 357.954C243.918 357.738 243.325 357.429 242.902 357.027C242.479 356.625 242.267 356.111 242.267 355.485C242.267 354.952 242.411 354.485 242.699 354.085C242.987 353.685 243.376 353.375 243.867 353.155C244.358 352.935 244.908 352.825 245.517 352.825C246.139 352.825 246.69 352.935 247.168 353.155C247.646 353.375 248.024 353.675 248.301 354.053C248.578 354.432 248.725 354.861 248.742 355.339H247.561C247.506 354.877 247.286 354.521 246.901 354.269C246.516 354.017 246.042 353.891 245.479 353.891C245.073 353.891 244.717 353.958 244.41 354.091C244.103 354.225 243.865 354.407 243.696 354.637C243.526 354.868 243.442 355.131 243.442 355.428C243.442 355.758 243.544 356.023 243.75 356.224C243.955 356.425 244.198 356.582 244.48 356.694C244.761 356.806 245.016 356.894 245.244 356.957L246.19 357.218C246.444 357.285 246.724 357.378 247.031 357.497C247.338 357.615 247.631 357.773 247.91 357.97C248.19 358.167 248.419 358.416 248.599 358.719C248.779 359.021 248.869 359.393 248.869 359.833C248.869 360.349 248.735 360.815 248.466 361.229C248.197 361.644 247.807 361.972 247.295 362.213C246.783 362.454 246.163 362.575 245.435 362.575ZM257.004 362.41V352.952H260.241C260.978 352.952 261.584 353.078 262.06 353.33C262.536 353.582 262.889 353.927 263.12 354.368C263.351 354.808 263.466 355.309 263.466 355.872C263.466 356.435 263.351 356.932 263.12 357.364C262.889 357.795 262.537 358.133 262.063 358.376C261.589 358.619 260.984 358.741 260.248 358.741H257.677V357.668H260.191C260.69 357.668 261.091 357.595 261.394 357.449C261.696 357.303 261.917 357.096 262.057 356.827C262.196 356.559 262.266 356.24 262.266 355.872C262.266 355.495 262.196 355.168 262.057 354.891C261.917 354.614 261.695 354.398 261.39 354.244C261.086 354.089 260.682 354.012 260.178 354.012H258.21V362.41H257.004ZM262.438 362.41L260.153 358.151H261.511L263.834 362.41H262.438ZM266.67 362.41V352.952H272.434V354.018H267.876V357.103H272.123V358.17H267.876V361.344H272.491V362.41H266.67ZM278.812 362.575C278.131 362.575 277.539 362.465 277.038 362.245C276.536 362.025 276.144 361.717 275.86 361.321C275.577 360.926 275.416 360.463 275.378 359.934H276.616C276.65 360.29 276.77 360.583 276.978 360.814C277.185 361.044 277.451 361.216 277.774 361.328C278.098 361.44 278.444 361.496 278.812 361.496C279.24 361.496 279.624 361.426 279.964 361.286C280.305 361.147 280.575 360.95 280.774 360.696C280.972 360.442 281.072 360.148 281.072 359.814C281.072 359.509 280.986 359.262 280.815 359.071C280.643 358.881 280.416 358.724 280.132 358.601C279.849 358.479 279.538 358.371 279.199 358.278L278.057 357.954C277.295 357.738 276.703 357.429 276.279 357.027C275.856 356.625 275.645 356.111 275.645 355.485C275.645 354.952 275.789 354.485 276.076 354.085C276.364 353.685 276.753 353.375 277.244 353.155C277.735 352.935 278.285 352.825 278.895 352.825C279.517 352.825 280.067 352.935 280.545 353.155C281.023 353.375 281.401 353.675 281.678 354.053C281.955 354.432 282.102 354.861 282.119 355.339H280.939C280.884 354.877 280.664 354.521 280.278 354.269C279.893 354.017 279.419 353.891 278.857 353.891C278.45 353.891 278.094 353.958 277.787 354.091C277.48 354.225 277.242 354.407 277.073 354.637C276.904 354.868 276.819 355.131 276.819 355.428C276.819 355.758 276.922 356.023 277.127 356.224C277.332 356.425 277.575 356.582 277.857 356.694C278.138 356.806 278.393 356.894 278.622 356.957L279.567 357.218C279.821 357.285 280.102 357.378 280.409 357.497C280.715 357.615 281.008 357.773 281.288 357.97C281.567 358.167 281.797 358.416 281.976 358.719C282.156 359.021 282.246 359.393 282.246 359.833C282.246 360.349 282.112 360.815 281.843 361.229C281.574 361.644 281.184 361.972 280.672 362.213C280.16 362.454 279.54 362.575 278.812 362.575ZM285.425 362.41V352.952H291.189V354.018H286.631V357.103H290.878V358.17H286.631V361.344H291.246V362.41H285.425ZM294.539 362.41V352.952H297.776C298.513 352.952 299.119 353.078 299.595 353.33C300.071 353.582 300.424 353.927 300.655 354.368C300.886 354.808 301.001 355.309 301.001 355.872C301.001 356.435 300.886 356.932 300.655 357.364C300.424 357.795 300.072 358.133 299.598 358.376C299.124 358.619 298.519 358.741 297.783 358.741H295.212V357.668H297.726C298.225 357.668 298.626 357.595 298.928 357.449C299.231 357.303 299.452 357.096 299.592 356.827C299.731 356.559 299.801 356.24 299.801 355.872C299.801 355.495 299.731 355.168 299.592 354.891C299.452 354.614 299.23 354.398 298.925 354.244C298.621 354.089 298.216 354.012 297.713 354.012H295.745V362.41H294.539ZM299.973 362.41L297.688 358.151H299.046L301.369 362.41H299.973ZM306.655 362.41L303.177 352.952H304.446L306.446 358.563C306.56 358.885 306.703 359.314 306.874 359.852C307.046 360.389 307.246 361.052 307.474 361.839H307.239C307.468 361.03 307.667 360.363 307.836 359.836C308.005 359.309 308.145 358.885 308.255 358.563L310.204 352.952H311.486L308.046 362.41H306.655ZM314.259 362.41V352.952H320.022V354.018H315.465V357.103H319.711V358.17H315.465V361.344H320.079V362.41H314.259ZM326.324 362.41H324.039V361.344H326.248C327.018 361.344 327.656 361.197 328.162 360.902C328.668 360.608 329.045 360.186 329.295 359.636C329.545 359.086 329.67 358.428 329.67 357.662C329.67 356.905 329.546 356.254 329.298 355.71C329.051 355.166 328.682 354.748 328.194 354.456C327.705 354.164 327.094 354.018 326.362 354.018H323.988V352.952H326.445C327.367 352.952 328.156 353.14 328.809 353.517C329.463 353.894 329.965 354.434 330.314 355.139C330.663 355.843 330.837 356.684 330.837 357.662C330.837 358.648 330.662 359.495 330.311 360.204C329.959 360.913 329.447 361.458 328.775 361.839C328.102 362.22 327.285 362.41 326.324 362.41ZM324.579 352.952V362.41H323.373V352.952H324.579ZM334.213 362.493C333.976 362.493 333.774 362.409 333.607 362.242C333.44 362.075 333.356 361.873 333.356 361.636C333.356 361.399 333.44 361.197 333.607 361.029C333.774 360.862 333.976 360.779 334.213 360.779C334.45 360.779 334.652 360.862 334.819 361.029C334.987 361.197 335.07 361.399 335.07 361.636C335.07 361.873 334.987 362.075 334.819 362.242C334.652 362.409 334.45 362.493 334.213 362.493Z" fill="#635E55"/>
<path d="M1201.01 369.41C1200.18 369.41 1199.47 369.118 1198.88 368.535C1198.3 367.952 1198.01 367.243 1198.01 366.41C1198.01 366.31 1198.03 366.077 1198.08 365.71L1191.06 361.61C1190.79 361.86 1190.48 362.056 1190.13 362.198C1189.78 362.339 1189.41 362.41 1189.01 362.41C1188.18 362.41 1187.47 362.118 1186.88 361.535C1186.3 360.952 1186.01 360.243 1186.01 359.41C1186.01 358.577 1186.3 357.868 1186.88 357.285C1187.47 356.702 1188.18 356.41 1189.01 356.41C1189.41 356.41 1189.78 356.481 1190.13 356.623C1190.48 356.764 1190.79 356.96 1191.06 357.21L1198.08 353.11C1198.05 352.993 1198.03 352.881 1198.02 352.773C1198.01 352.664 1198.01 352.543 1198.01 352.41C1198.01 351.577 1198.3 350.868 1198.88 350.285C1199.47 349.702 1200.18 349.41 1201.01 349.41C1201.84 349.41 1202.55 349.702 1203.13 350.285C1203.72 350.868 1204.01 351.577 1204.01 352.41C1204.01 353.243 1203.72 353.952 1203.13 354.535C1202.55 355.118 1201.84 355.41 1201.01 355.41C1200.61 355.41 1200.23 355.339 1199.88 355.198C1199.53 355.056 1199.23 354.86 1198.96 354.61L1191.93 358.71C1191.97 358.827 1191.99 358.939 1192 359.048C1192.01 359.156 1192.01 359.277 1192.01 359.41C1192.01 359.543 1192.01 359.664 1192 359.773C1191.99 359.881 1191.97 359.993 1191.93 360.11L1198.96 364.21C1199.23 363.96 1199.53 363.764 1199.88 363.623C1200.23 363.481 1200.61 363.41 1201.01 363.41C1201.84 363.41 1202.55 363.702 1203.13 364.285C1203.72 364.868 1204.01 365.577 1204.01 366.41C1204.01 367.243 1203.72 367.952 1203.13 368.535C1202.55 369.118 1201.84 369.41 1201.01 369.41ZM1201.01 367.41C1201.29 367.41 1201.53 367.314 1201.72 367.123C1201.91 366.931 1202.01 366.693 1202.01 366.41C1202.01 366.127 1201.91 365.889 1201.72 365.698C1201.53 365.506 1201.29 365.41 1201.01 365.41C1200.73 365.41 1200.49 365.506 1200.3 365.698C1200.11 365.889 1200.01 366.127 1200.01 366.41C1200.01 366.693 1200.11 366.931 1200.3 367.123C1200.49 367.314 1200.73 367.41 1201.01 367.41ZM1189.01 360.41C1189.29 360.41 1189.53 360.314 1189.72 360.123C1189.91 359.931 1190.01 359.693 1190.01 359.41C1190.01 359.127 1189.91 358.889 1189.72 358.698C1189.53 358.506 1189.29 358.41 1189.01 358.41C1188.73 358.41 1188.49 358.506 1188.3 358.698C1188.11 358.889 1188.01 359.127 1188.01 359.41C1188.01 359.693 1188.11 359.931 1188.3 360.123C1188.49 360.314 1188.73 360.41 1189.01 360.41ZM1201.01 353.41C1201.29 353.41 1201.53 353.314 1201.72 353.123C1201.91 352.931 1202.01 352.693 1202.01 352.41C1202.01 352.127 1201.91 351.889 1201.72 351.698C1201.53 351.506 1201.29 351.41 1201.01 351.41C1200.73 351.41 1200.49 351.506 1200.3 351.698C1200.11 351.889 1200.01 352.127 1200.01 352.41C1200.01 352.693 1200.11 352.931 1200.3 353.123C1200.49 353.314 1200.73 353.41 1201.01 353.41Z" fill="#635E55"/>
<path d="M1238.01 369.41C1236.64 369.41 1235.34 369.148 1234.12 368.623C1232.91 368.098 1231.85 367.381 1230.94 366.473C1230.03 365.564 1229.31 364.502 1228.79 363.285C1228.26 362.068 1228 360.773 1228 359.398C1228 358.023 1228.26 356.731 1228.79 355.523C1229.31 354.314 1230.03 353.256 1230.94 352.348C1231.85 351.439 1232.91 350.723 1234.12 350.198C1235.34 349.673 1236.64 349.41 1238.01 349.41C1239.39 349.41 1240.68 349.673 1241.89 350.198C1243.1 350.723 1244.15 351.439 1245.06 352.348C1245.97 353.256 1246.69 354.314 1247.21 355.523C1247.74 356.731 1248 358.023 1248 359.398C1248 360.773 1247.74 362.068 1247.21 363.285C1246.69 364.502 1245.97 365.564 1245.06 366.473C1244.15 367.381 1243.1 368.098 1241.89 368.623C1240.68 369.148 1239.39 369.41 1238.01 369.41ZM1238 367.36C1238.43 366.76 1238.81 366.135 1239.12 365.485C1239.44 364.835 1239.7 364.143 1239.9 363.41H1236.1C1236.3 364.143 1236.56 364.835 1236.88 365.485C1237.19 366.135 1237.57 366.76 1238 367.36ZM1235.4 366.96C1235.1 366.41 1234.84 365.839 1234.61 365.248C1234.39 364.656 1234.2 364.043 1234.05 363.41H1231.1C1231.58 364.243 1232.19 364.968 1232.91 365.585C1233.64 366.202 1234.47 366.66 1235.4 366.96ZM1240.6 366.96C1241.53 366.66 1242.36 366.202 1243.09 365.585C1243.81 364.968 1244.42 364.243 1244.9 363.41H1241.95C1241.8 364.043 1241.61 364.656 1241.39 365.248C1241.16 365.839 1240.9 366.41 1240.6 366.96ZM1230.25 361.41H1233.65C1233.6 361.077 1233.56 360.748 1233.54 360.423C1233.51 360.098 1233.5 359.76 1233.5 359.41C1233.5 359.06 1233.51 358.723 1233.54 358.398C1233.56 358.073 1233.6 357.743 1233.65 357.41H1230.25C1230.17 357.743 1230.1 358.073 1230.06 358.398C1230.02 358.723 1230 359.06 1230 359.41C1230 359.76 1230.02 360.098 1230.06 360.423C1230.1 360.748 1230.17 361.077 1230.25 361.41ZM1235.65 361.41H1240.35C1240.4 361.077 1240.44 360.748 1240.46 360.423C1240.49 360.098 1240.5 359.76 1240.5 359.41C1240.5 359.06 1240.49 358.723 1240.46 358.398C1240.44 358.073 1240.4 357.743 1240.35 357.41H1235.65C1235.6 357.743 1235.56 358.073 1235.54 358.398C1235.51 358.723 1235.5 359.06 1235.5 359.41C1235.5 359.76 1235.51 360.098 1235.54 360.423C1235.56 360.748 1235.6 361.077 1235.65 361.41ZM1242.35 361.41H1245.75C1245.83 361.077 1245.9 360.748 1245.94 360.423C1245.98 360.098 1246 359.76 1246 359.41C1246 359.06 1245.98 358.723 1245.94 358.398C1245.9 358.073 1245.83 357.743 1245.75 357.41H1242.35C1242.4 357.743 1242.44 358.073 1242.46 358.398C1242.49 358.723 1242.5 359.06 1242.5 359.41C1242.5 359.76 1242.49 360.098 1242.46 360.423C1242.44 360.748 1242.4 361.077 1242.35 361.41ZM1241.95 355.41H1244.9C1244.42 354.577 1243.81 353.852 1243.09 353.235C1242.36 352.618 1241.53 352.16 1240.6 351.86C1240.9 352.41 1241.16 352.981 1241.39 353.573C1241.61 354.164 1241.8 354.777 1241.95 355.41ZM1236.1 355.41H1239.9C1239.7 354.677 1239.44 353.985 1239.12 353.335C1238.81 352.685 1238.43 352.06 1238 351.46C1237.57 352.06 1237.19 352.685 1236.88 353.335C1236.56 353.985 1236.3 354.677 1236.1 355.41ZM1231.1 355.41H1234.05C1234.2 354.777 1234.39 354.164 1234.61 353.573C1234.84 352.981 1235.1 352.41 1235.4 351.86C1234.47 352.16 1233.64 352.618 1232.91 353.235C1232.19 353.852 1231.58 354.577 1231.1 355.41Z" fill="#635E55"/>
</svg>
