<svg width="448" height="50" viewBox="0 0 448 50" fill="none" xmlns="http://www.w3.org/2000/svg">
<rect width="448" height="49.19" rx="8" fill="#162839"/>
<path d="M190.021 30.7159C189.042 30.7159 188.192 30.5606 187.471 30.2501C186.749 29.9396 186.185 29.4965 185.779 28.9207C185.372 28.3449 185.147 27.6581 185.103 26.8603H187.116C187.158 27.3356 187.313 27.729 187.581 28.0404C187.849 28.3518 188.195 28.5838 188.622 28.7365C189.048 28.8891 189.511 28.9654 190.011 28.9654C190.565 28.9654 191.058 28.8777 191.492 28.7023C191.925 28.5269 192.266 28.28 192.516 27.9616C192.765 27.6433 192.89 27.2748 192.89 26.8562C192.89 26.4744 192.781 26.162 192.564 25.9189C192.347 25.6758 192.051 25.4735 191.678 25.312C191.304 25.1505 190.882 25.0079 190.41 24.8843L188.875 24.4661C187.802 24.1768 186.966 23.7504 186.366 23.1869C185.766 22.6234 185.466 21.8938 185.466 20.9981C185.466 20.243 185.67 19.5822 186.078 19.0159C186.485 18.4495 187.04 18.01 187.74 17.6974C188.44 17.3848 189.229 17.2285 190.108 17.2285C191.005 17.2285 191.795 17.3853 192.476 17.699C193.158 18.0126 193.694 18.4422 194.084 18.9877C194.474 19.5332 194.679 20.1544 194.699 20.8514H192.745C192.677 20.2507 192.399 19.786 191.911 19.4574C191.423 19.1288 190.807 18.9645 190.065 18.9645C189.538 18.9645 189.08 19.0478 188.689 19.2145C188.298 19.3811 187.997 19.6091 187.785 19.8984C187.573 20.1876 187.467 20.5178 187.467 20.889C187.467 21.3007 187.594 21.6346 187.848 21.8908C188.103 22.1469 188.414 22.349 188.78 22.4969C189.147 22.6447 189.496 22.7626 189.83 22.8505L191.097 23.1872C191.515 23.2914 191.944 23.4335 192.386 23.6134C192.828 23.7933 193.237 24.0253 193.614 24.3093C193.99 24.5934 194.295 24.9452 194.527 25.3646C194.759 25.7841 194.875 26.2885 194.875 26.8779C194.875 27.6191 194.684 28.2792 194.303 28.8581C193.921 29.4371 193.369 29.8914 192.645 30.2212C191.921 30.551 191.046 30.7159 190.021 30.7159ZM197.103 30.5V20.6738H199.036V30.5H197.103ZM198.075 19.1746C197.744 19.1746 197.459 19.062 197.22 18.8368C196.981 18.6117 196.861 18.3414 196.861 18.0262C196.861 17.7045 196.981 17.4326 197.22 17.2104C197.459 16.9882 197.744 16.8771 198.075 16.8771C198.411 16.8771 198.699 16.9882 198.938 17.2102C199.177 17.4323 199.297 17.7043 199.297 18.0261C199.297 18.3415 199.177 18.6118 198.938 18.8369C198.699 19.062 198.411 19.1746 198.075 19.1746ZM205.748 34.3848C204.991 34.3848 204.334 34.2888 203.778 34.0968C203.222 33.9049 202.763 33.6468 202.401 33.3226C202.04 32.9984 201.766 32.6391 201.581 32.2448L203.192 31.4851C203.314 31.6705 203.472 31.8682 203.668 32.0783C203.864 32.2883 204.128 32.4655 204.46 32.6097C204.792 32.754 205.22 32.8261 205.745 32.8261C206.492 32.8261 207.099 32.6497 207.565 32.2968C208.031 31.944 208.264 31.3896 208.264 30.6338V28.7188H208.096C207.982 28.9316 207.821 29.1648 207.612 29.4184C207.403 29.672 207.112 29.8904 206.74 30.0735C206.368 30.2566 205.883 30.3481 205.284 30.3481C204.514 30.3481 203.82 30.1663 203.2 29.8027C202.581 29.439 202.09 28.9009 201.728 28.1881C201.367 27.4754 201.186 26.5968 201.186 25.5525C201.186 24.5071 201.366 23.6115 201.726 22.8655C202.086 22.1195 202.577 21.5472 203.199 21.1486C203.821 20.7501 204.524 20.5508 205.309 20.5508C205.916 20.5508 206.407 20.6511 206.783 20.8517C207.16 21.0523 207.455 21.2885 207.669 21.5601C207.883 21.8318 208.047 22.0697 208.162 22.274H208.297V20.6738H210.188V30.6426C210.188 31.5 209.993 32.2055 209.603 32.7591C209.213 33.3126 208.683 33.7219 208.013 33.9871C207.343 34.2522 206.588 34.3848 205.748 34.3848ZM205.734 28.7425C206.283 28.7425 206.747 28.6148 207.125 28.3592C207.503 28.1036 207.789 27.735 207.985 27.2534C208.181 26.7718 208.279 26.1952 208.279 25.5236C208.279 24.8643 208.182 24.2859 207.989 23.7883C207.795 23.2907 207.51 22.9014 207.132 22.6202C206.754 22.339 206.288 22.1984 205.734 22.1984C205.167 22.1984 204.692 22.3462 204.31 22.6418C203.927 22.9374 203.64 23.3352 203.448 23.8352C203.256 24.3351 203.16 24.898 203.16 25.5236C203.16 26.1627 203.257 26.7242 203.451 27.2081C203.646 27.6921 203.934 28.0689 204.317 28.3383C204.699 28.6078 205.171 28.7425 205.734 28.7425ZM214.725 24.6778V30.5H212.792V20.6738H214.635L214.655 23.0794H214.455C214.741 22.2007 215.155 21.5596 215.699 21.1561C216.244 20.7525 216.902 20.5508 217.675 20.5508C218.343 20.5508 218.928 20.691 219.428 20.9713C219.929 21.2517 220.319 21.6666 220.598 22.216C220.877 22.7655 221.016 23.4457 221.016 24.2566V30.5H219.083V24.4976C219.083 23.7902 218.898 23.2362 218.53 22.8353C218.161 22.4345 217.656 22.2341 217.013 22.2341C216.577 22.2341 216.186 22.3295 215.84 22.5203C215.494 22.7112 215.222 22.9884 215.023 23.3519C214.824 23.7155 214.725 24.1575 214.725 24.6778ZM228.418 30.5V20.6738H230.352V30.5H228.418ZM229.391 19.1746C229.059 19.1746 228.774 19.062 228.535 18.8368C228.296 18.6117 228.177 18.3414 228.177 18.0262C228.177 17.7045 228.296 17.4326 228.535 17.2104C228.774 16.9882 229.059 16.8771 229.391 16.8771C229.727 16.8771 230.014 16.9882 230.253 17.2102C230.492 17.4323 230.612 17.7043 230.612 18.0261C230.612 18.3415 230.492 18.6118 230.253 18.8369C230.014 19.062 229.727 19.1746 229.391 19.1746ZM234.887 24.6778V30.5H232.954V20.6738H234.797L234.817 23.0794H234.618C234.903 22.2007 235.317 21.5596 235.862 21.1561C236.406 20.7525 237.064 20.5508 237.837 20.5508C238.505 20.5508 239.09 20.691 239.59 20.9713C240.091 21.2517 240.481 21.6666 240.76 22.216C241.039 22.7655 241.178 23.4457 241.178 24.2566V30.5H239.245V24.4976C239.245 23.7902 239.061 23.2362 238.692 22.8353C238.323 22.4345 237.818 22.2341 237.176 22.2341C236.739 22.2341 236.348 22.3295 236.002 22.5203C235.656 22.7112 235.384 22.9884 235.185 23.3519C234.986 23.7155 234.887 24.1575 234.887 24.6778Z" fill="white"/>
<path d="M260.639 25.3333H250.493V23.6666H260.639L255.972 19L257.16 17.8333L263.826 24.5L257.16 31.1666L255.972 30L260.639 25.3333Z" fill="white"/>
</svg>
