<svg width="283" height="107" viewBox="0 0 283 107" fill="none" xmlns="http://www.w3.org/2000/svg">
<rect x="0.5" y="0.5" width="281.67" height="106" rx="11.5" fill="#FBF9FA"/>
<rect x="0.5" y="0.5" width="281.67" height="106" rx="11.5" stroke="#C4C6CD"/>
<path d="M25.4858 28.0522V26.9971H31.696V28.0522H29.209V35H27.9816V28.0522H25.4858ZM36.9487 35.1074C36.2571 35.1074 35.6388 34.9433 35.0938 34.6149C34.5488 34.2866 34.1191 33.8157 33.8047 33.2023C33.4903 32.5888 33.3331 31.856 33.3331 31.0039C33.3331 30.1475 33.4903 29.4125 33.8047 28.7987C34.1191 28.1849 34.5488 27.7133 35.0938 27.3838C35.6388 27.0544 36.2571 26.8896 36.9487 26.8896C37.6404 26.8896 38.2578 27.0544 38.801 27.3838C39.3442 27.7133 39.7724 28.1849 40.0857 28.7987C40.3989 29.4125 40.5555 30.1475 40.5555 31.0039C40.5555 31.8567 40.3989 32.5898 40.0857 33.2033C39.7724 33.8167 39.3442 34.2874 38.801 34.6154C38.2578 34.9434 37.6404 35.1074 36.9487 35.1074ZM36.9487 33.992C37.4044 33.992 37.8121 33.8776 38.1719 33.6487C38.5317 33.4199 38.8161 33.0828 39.0251 32.6374C39.2341 32.192 39.3386 31.6475 39.3386 31.0039C39.3386 30.3538 39.2341 29.8059 39.0251 29.3601C38.8161 28.9144 38.5317 28.5771 38.1719 28.3483C37.8121 28.1195 37.4044 28.0051 36.9487 28.0051C36.4908 28.0051 36.0813 28.1202 35.72 28.3505C35.3587 28.5808 35.0734 28.9188 34.8641 29.3645C34.6548 29.8103 34.5501 30.3567 34.5501 31.0039C34.5501 31.6475 34.6548 32.1913 34.8641 32.6352C35.0734 33.0792 35.3587 33.4163 35.72 33.6465C36.0813 33.8768 36.4908 33.992 36.9487 33.992ZM42.1935 28.0522V26.9971H48.4038V28.0522H45.9168V35H44.6894V28.0522H42.1935ZM49.0917 35L51.9414 26.9971H53.444L56.3419 35H55.0183L53.4593 30.5478C53.338 30.1858 53.2051 29.7598 53.0605 29.2696C52.9158 28.7794 52.7486 28.1909 52.5588 27.5041H52.8063C52.6206 28.1968 52.456 28.7911 52.3123 29.2872C52.1686 29.7833 52.0412 30.2035 51.93 30.5478L50.4184 35H49.0917ZM50.6358 32.8913V31.8682H54.7979V32.8913H50.6358ZM58.3826 35V26.9971H59.61V33.9449H63.231V35H58.3826ZM71.9817 35.1319C71.3839 35.1319 70.8645 35.037 70.4234 34.8473C69.9824 34.6576 69.6377 34.3867 69.3894 34.0349C69.1411 33.683 69.0034 33.2633 68.9764 32.7757H70.2064C70.2325 33.0662 70.3273 33.3066 70.4908 33.4969C70.6544 33.6872 70.8663 33.829 71.1267 33.9223C71.3871 34.0156 71.6702 34.0622 71.9759 34.0622C72.3144 34.0622 72.6159 34.0086 72.8807 33.9014C73.1454 33.7942 73.354 33.6433 73.5065 33.4488C73.659 33.2542 73.7353 33.0291 73.7353 32.7733C73.7353 32.5399 73.6689 32.349 73.5361 32.2004C73.4033 32.0519 73.2228 31.9282 72.9945 31.8295C72.7662 31.7309 72.5078 31.6437 72.2194 31.5682L71.2816 31.3126C70.6262 31.1358 70.115 30.8752 69.7482 30.5309C69.3815 30.1865 69.1981 29.7407 69.1981 29.1933C69.1981 28.7318 69.3227 28.328 69.572 27.9819C69.8213 27.6358 70.1599 27.3672 70.5879 27.1762C71.0158 26.9852 71.4982 26.8896 72.0351 26.8896C72.5834 26.8896 73.0658 26.9855 73.4823 27.1772C73.8989 27.3688 74.2264 27.6314 74.4648 27.9647C74.7032 28.2981 74.8286 28.6777 74.841 29.1036H73.6466C73.6052 28.7365 73.4353 28.4526 73.1369 28.2518C72.8384 28.0509 72.4623 27.9505 72.0087 27.9505C71.6868 27.9505 71.4066 28.0015 71.1679 28.1033C70.9293 28.2051 70.7451 28.3444 70.6154 28.5212C70.4857 28.698 70.4209 28.8998 70.4209 29.1266C70.4209 29.3782 70.4987 29.5822 70.6543 29.7388C70.8099 29.8953 70.9997 30.0188 71.2236 30.1092C71.4476 30.1996 71.6614 30.2716 71.865 30.3253L72.6392 30.531C72.8947 30.5948 73.1574 30.6816 73.4273 30.7915C73.6972 30.9015 73.9473 31.0432 74.1775 31.2168C74.4077 31.3904 74.5937 31.6054 74.7356 31.8617C74.8774 32.1181 74.9484 32.4263 74.9484 32.7865C74.9484 33.2394 74.8318 33.6428 74.5986 33.9966C74.3654 34.3504 74.0277 34.6281 73.5854 34.8296C73.1431 35.0312 72.6085 35.1319 71.9817 35.1319ZM77.2809 35V26.9971H80.1478C80.7657 26.9971 81.2799 27.1114 81.6905 27.3401C82.1011 27.5687 82.4088 27.8785 82.6136 28.2694C82.8184 28.6602 82.9208 29.1022 82.9208 29.5952C82.9208 30.0888 82.8179 30.5317 82.6121 30.9239C82.4063 31.3161 82.0978 31.6266 81.6864 31.8555C81.2751 32.0843 80.7591 32.1988 80.1387 32.1988H78.1775V31.1597H80.0198C80.4126 31.1597 80.7312 31.092 80.9755 30.9566C81.2198 30.8213 81.3983 30.6353 81.5112 30.3986C81.624 30.162 81.6804 29.8942 81.6804 29.5952C81.6804 29.2949 81.624 29.0281 81.5112 28.7947C81.3983 28.5613 81.219 28.3781 80.9733 28.2452C80.7276 28.1123 80.4068 28.0458 80.011 28.0458H78.5083V35H77.2809ZM85.2186 35V26.9971H90.256V28.0522H86.446V30.4363H89.986V31.4836H86.446V33.9449H90.2918V35H85.2186ZM92.7319 35V26.9971H94.1438L97.156 31.76C97.2561 31.9176 97.369 32.106 97.4946 32.3253C97.6202 32.5446 97.7531 32.7909 97.8933 33.0642C98.0334 33.3375 98.1718 33.6354 98.3086 33.9577H98.1558C98.1262 33.653 98.103 33.351 98.0865 33.0519C98.0699 32.7528 98.0582 32.473 98.0514 32.2125C98.0446 31.952 98.0412 31.7313 98.0412 31.5505V26.9971H99.2802V35H97.8594L95.1611 30.7392C95.0164 30.506 94.8752 30.2717 94.7377 30.0363C94.6002 29.801 94.4483 29.5287 94.2819 29.2197C94.1155 28.9106 93.9116 28.5331 93.6703 28.0871H93.865C93.8849 28.4807 93.9031 28.849 93.9197 29.192C93.9362 29.535 93.9497 29.838 93.9599 30.1009C93.9701 30.3638 93.9753 30.5736 93.9753 30.7304V35H92.7319ZM101.532 28.0522V26.9971H107.742V28.0522H105.255V35H104.028V28.0522H101.532Z" fill="#43474C"/>
<path d="M34.4491 75.3163V45.4025H36.3241V75.3163H34.4491ZM35.3922 72.3838C33.6532 72.3838 32.1422 72.1078 30.8591 71.5558C29.5759 71.0038 28.5732 70.216 27.8509 69.1923C27.1287 68.1687 26.7281 66.9477 26.6494 65.5294H30.2278C30.3036 66.3744 30.5794 67.0737 31.0551 67.6274C31.5309 68.181 32.1475 68.5935 32.905 68.8649C33.6625 69.1362 34.4859 69.2719 35.3753 69.2719C36.3599 69.2719 37.2372 69.116 38.0073 68.8041C38.7775 68.4922 39.3843 68.0533 39.828 67.4874C40.2716 66.9214 40.4935 66.2664 40.4935 65.5222C40.4935 64.8434 40.3003 64.288 39.9141 63.8558C39.5278 63.4236 39.0026 63.064 38.3384 62.7769C37.6743 62.4898 36.9227 62.2363 36.0838 62.0166L33.3556 61.2731C31.4488 60.7587 29.9618 60.0007 28.8948 58.9989C27.8279 57.9971 27.2944 56.7001 27.2944 55.1078C27.2944 53.7653 27.657 52.5906 28.3822 51.5837C29.1074 50.5769 30.0925 49.7956 31.3373 49.2398C32.5822 48.6841 33.9856 48.4062 35.5475 48.4062C37.1425 48.4062 38.5459 48.6851 39.7576 49.2427C40.9694 49.8003 41.9221 50.564 42.6156 51.5337C43.3092 52.5035 43.6739 53.6079 43.71 54.8469H40.2356C40.1152 53.7789 39.6209 52.9529 38.7527 52.3687C37.8844 51.7846 36.7904 51.4925 35.4706 51.4925C34.5344 51.4925 33.7191 51.6406 33.0248 51.9369C32.3306 52.2331 31.7948 52.6384 31.4175 53.1526C31.0402 53.6669 30.8515 54.254 30.8515 54.9137C30.8515 55.6456 31.0779 56.2393 31.5306 56.6947C31.9833 57.1501 32.5354 57.5093 33.1869 57.7722C33.8383 58.0351 34.4603 58.2447 35.0528 58.4009L37.305 58.9994C38.0481 59.1848 38.8123 59.4374 39.5975 59.7572C40.3827 60.077 41.1101 60.4894 41.7798 60.9944C42.4495 61.4994 42.9907 62.1247 43.4034 62.8705C43.8161 63.6162 44.0225 64.5129 44.0225 65.5606C44.0225 66.8783 43.6833 68.0518 43.005 69.0811C42.3267 70.1104 41.3442 70.9181 40.0575 71.5044C38.7708 72.0906 37.2157 72.3838 35.3922 72.3838ZM47.1256 67.4653V64.5963L57.1669 48.7188H59.4391V52.9494H57.9969L50.8459 64.255V64.4425H64.6384V67.4653H47.1256ZM58.1434 72V66.6059L58.1844 65.2825V48.7188H61.5665V72H58.1434ZM66.9088 77.7978L68.2838 68.66H71.9919L69.4081 77.7978H66.9088ZM76.5856 72V69.4291L84.4916 61.255C85.3036 60.4 85.9821 59.6441 86.5269 58.9873C87.0717 58.3306 87.4838 57.6992 87.7633 57.0933C88.0428 56.4873 88.1825 55.84 88.1825 55.1512C88.1825 54.3781 88.0015 53.7101 87.6395 53.1473C87.2776 52.5845 86.7877 52.1522 86.1698 51.8505C85.552 51.5487 84.849 51.3978 84.0606 51.3978C83.2296 51.3978 82.5073 51.5662 81.8937 51.9031C81.2802 52.24 80.8062 52.7157 80.4717 53.3301C80.1372 53.9446 79.97 54.6697 79.97 55.5053H76.5581C76.5581 54.0834 76.8848 52.8395 77.538 51.7734C78.1912 50.7074 79.0872 49.8797 80.2259 49.2903C81.3647 48.7009 82.6643 48.4062 84.1247 48.4062C85.5963 48.4062 86.8928 48.6967 88.0139 49.2777C89.135 49.8586 90.0125 50.6476 90.6462 51.6445C91.28 52.6415 91.5969 53.77 91.5969 55.03C91.5969 55.8831 91.4397 56.7156 91.1255 57.5275C90.8112 58.3394 90.256 59.2561 89.46 60.2778C88.6639 61.2995 87.5419 62.5404 86.0937 64.0006L81.5231 68.7728V68.9547H91.9622V72H76.5856ZM103.798 72.3125C102.171 72.3125 100.731 72.0315 99.4805 71.4695C98.2295 70.9076 97.2527 70.1351 96.5498 69.1522C95.847 68.1693 95.4956 67.0485 95.4956 65.79C95.4956 64.8146 95.701 63.9114 96.1119 63.0803C96.5227 62.2493 97.0836 61.5553 97.7945 60.9984C98.5055 60.4416 99.3064 60.085 100.197 59.9287V59.7981C99.028 59.5158 98.0928 58.8917 97.3914 57.9258C96.6901 56.9598 96.3394 55.8567 96.3394 54.6162C96.3394 53.4231 96.6607 52.359 97.3034 51.4239C97.9462 50.4888 98.8283 49.7521 99.95 49.2137C101.072 48.6754 102.354 48.4062 103.798 48.4062C105.226 48.4062 106.502 48.6754 107.624 49.2137C108.747 49.7521 109.632 50.4893 110.279 51.4253C110.926 52.3614 111.249 53.425 111.249 54.6162C111.249 55.8585 110.895 56.9622 110.188 57.9272C109.48 58.8922 108.557 59.5158 107.417 59.7981V59.9287C108.289 60.085 109.08 60.4416 109.791 60.9984C110.502 61.5553 111.068 62.2493 111.488 63.0803C111.908 63.9114 112.118 64.8146 112.118 65.79C112.118 67.0485 111.763 68.1693 111.051 69.1522C110.34 70.1351 109.358 70.9076 108.107 71.4695C106.855 72.0315 105.418 72.3125 103.798 72.3125ZM103.798 69.4166C104.752 69.4166 105.579 69.2557 106.277 68.9341C106.975 68.6124 107.517 68.1628 107.903 67.5853C108.288 67.0078 108.48 66.3329 108.48 65.5606C108.48 64.756 108.277 64.0455 107.87 63.4291C107.464 62.8126 106.907 62.3269 106.2 61.972C105.493 61.6171 104.692 61.4397 103.798 61.4397C102.89 61.4397 102.082 61.6167 101.375 61.9706C100.668 62.3246 100.112 62.8098 99.7051 63.4262C99.2986 64.0427 99.0953 64.7542 99.0953 65.5606C99.0953 66.3329 99.2858 67.0074 99.6667 67.5839C100.048 68.1605 100.592 68.6101 101.299 68.9327C102.006 69.2553 102.839 69.4166 103.798 69.4166ZM103.798 58.615C104.568 58.615 105.251 58.4608 105.846 58.1523C106.441 57.8439 106.912 57.4116 107.258 56.8553C107.605 56.2991 107.778 55.6575 107.778 54.9306C107.778 54.2019 107.611 53.5688 107.278 53.0316C106.944 52.4943 106.478 52.0761 105.878 51.7772C105.279 51.4782 104.585 51.3287 103.798 51.3287C103.004 51.3287 102.307 51.4782 101.707 51.7772C101.108 52.0761 100.642 52.4943 100.31 53.0316C99.9769 53.5688 99.8106 54.2019 99.8106 54.9306C99.8106 55.6575 99.979 56.2986 100.316 56.8539C100.653 57.4092 101.123 57.8416 101.727 58.1509C102.33 58.4603 103.021 58.615 103.798 58.615ZM123.88 72.3125C122.074 72.3125 120.534 71.8428 119.259 70.9034C117.984 69.9641 117.008 68.6064 116.331 66.8303C115.655 65.0543 115.316 62.902 115.316 60.3736C115.316 57.8556 115.657 55.7056 116.338 53.9238C117.019 52.1419 117.997 50.7769 119.271 49.8286C120.546 48.8804 122.082 48.4062 123.88 48.4062C125.678 48.4062 127.217 48.8807 128.497 49.8295C129.777 50.7784 130.755 52.1434 131.431 53.9247C132.107 55.7059 132.445 57.8562 132.445 60.3753C132.445 62.8945 132.109 65.0442 131.438 66.8242C130.766 68.6043 129.793 69.9641 128.518 70.9034C127.243 71.8428 125.697 72.3125 123.88 72.3125ZM123.881 69.2631C124.956 69.2631 125.868 68.913 126.617 68.2128C127.365 67.5126 127.936 66.5009 128.329 65.1778C128.722 63.8547 128.919 62.2536 128.919 60.3746C128.919 58.4857 128.722 56.8749 128.329 55.5423C127.936 54.2097 127.365 53.1924 126.616 52.4903C125.867 51.7882 124.956 51.4372 123.881 51.4372C122.807 51.4372 121.896 51.7903 121.146 52.4967C120.397 53.2031 119.825 54.2204 119.432 55.5487C119.039 56.8771 118.842 58.4857 118.842 60.3746C118.842 62.2536 119.038 63.8547 119.431 65.1778C119.823 66.5009 120.394 67.5126 121.144 68.2128C121.893 68.913 122.806 69.2631 123.881 69.2631Z" fill="#162839"/>
<rect x="211.67" y="32.685" width="46" height="41.63" rx="20.815" fill="#EFEDEF"/>
<path d="M236.67 55.305C235.837 55.305 235.128 55.0133 234.545 54.43C233.962 53.8467 233.67 53.1383 233.67 52.305C233.67 51.4717 233.962 50.7633 234.545 50.18C235.128 49.5967 235.837 49.305 236.67 49.305C237.503 49.305 238.212 49.5967 238.795 50.18C239.378 50.7633 239.67 51.4717 239.67 52.305C239.67 53.1383 239.378 53.8467 238.795 54.43C238.212 55.0133 237.503 55.305 236.67 55.305ZM229.67 58.305C229.12 58.305 228.649 58.1092 228.257 57.7175C227.866 57.3258 227.67 56.855 227.67 56.305V48.305C227.67 47.755 227.866 47.2842 228.257 46.8925C228.649 46.5008 229.12 46.305 229.67 46.305H243.67C244.22 46.305 244.691 46.5008 245.082 46.8925C245.474 47.2842 245.67 47.755 245.67 48.305V56.305C245.67 56.855 245.474 57.3258 245.082 57.7175C244.691 58.1092 244.22 58.305 243.67 58.305H229.67ZM231.67 56.305H241.67C241.67 55.755 241.866 55.2842 242.257 54.8925C242.649 54.5008 243.12 54.305 243.67 54.305V50.305C243.12 50.305 242.649 50.1092 242.257 49.7175C241.866 49.3258 241.67 48.855 241.67 48.305H231.67C231.67 48.855 231.474 49.3258 231.082 49.7175C230.691 50.1092 230.22 50.305 229.67 50.305V54.305C230.22 54.305 230.691 54.5008 231.082 54.8925C231.474 55.2842 231.67 55.755 231.67 56.305ZM242.67 62.305H225.67C225.12 62.305 224.649 62.1092 224.257 61.7175C223.866 61.3258 223.67 60.855 223.67 60.305V49.305H225.67V60.305H242.67V62.305ZM229.67 56.305V48.305V56.305Z" fill="#162839"/>
</svg>
