<svg width="283" height="107" viewBox="0 0 283 107" fill="none" xmlns="http://www.w3.org/2000/svg">
<rect x="0.5" y="0.5" width="281.66" height="106" rx="11.5" fill="#FBF9FA"/>
<rect x="0.5" y="0.5" width="281.66" height="106" rx="11.5" stroke="#C4C6CD"/>
<path d="M25.4858 28.0522V26.9971H31.696V28.0522H29.209V35H27.9816V28.0522H25.4858ZM36.9487 35.1074C36.2571 35.1074 35.6388 34.9433 35.0938 34.6149C34.5488 34.2866 34.1191 33.8157 33.8047 33.2023C33.4903 32.5888 33.3331 31.856 33.3331 31.0039C33.3331 30.1475 33.4903 29.4125 33.8047 28.7987C34.1191 28.1849 34.5488 27.7133 35.0938 27.3838C35.6388 27.0544 36.2571 26.8896 36.9487 26.8896C37.6404 26.8896 38.2578 27.0544 38.801 27.3838C39.3442 27.7133 39.7724 28.1849 40.0857 28.7987C40.3989 29.4125 40.5555 30.1475 40.5555 31.0039C40.5555 31.8567 40.3989 32.5898 40.0857 33.2033C39.7724 33.8167 39.3442 34.2874 38.801 34.6154C38.2578 34.9434 37.6404 35.1074 36.9487 35.1074ZM36.9487 33.992C37.4044 33.992 37.8121 33.8776 38.1719 33.6487C38.5317 33.4199 38.8161 33.0828 39.0251 32.6374C39.2341 32.192 39.3386 31.6475 39.3386 31.0039C39.3386 30.3538 39.2341 29.8059 39.0251 29.3601C38.8161 28.9144 38.5317 28.5771 38.1719 28.3483C37.8121 28.1195 37.4044 28.0051 36.9487 28.0051C36.4908 28.0051 36.0813 28.1202 35.72 28.3505C35.3587 28.5808 35.0734 28.9188 34.8641 29.3645C34.6548 29.8103 34.5501 30.3567 34.5501 31.0039C34.5501 31.6475 34.6548 32.1913 34.8641 32.6352C35.0734 33.0792 35.3587 33.4163 35.72 33.6465C36.0813 33.8768 36.4908 33.992 36.9487 33.992ZM42.1935 28.0522V26.9971H48.4038V28.0522H45.9168V35H44.6894V28.0522H42.1935ZM49.0917 35L51.9414 26.9971H53.444L56.3419 35H55.0183L53.4593 30.5478C53.338 30.1858 53.2051 29.7598 53.0605 29.2696C52.9158 28.7794 52.7486 28.1909 52.5588 27.5041H52.8063C52.6206 28.1968 52.456 28.7911 52.3123 29.2872C52.1686 29.7833 52.0412 30.2035 51.93 30.5478L50.4184 35H49.0917ZM50.6358 32.8913V31.8682H54.7979V32.8913H50.6358ZM58.3826 35V26.9971H59.61V33.9449H63.231V35H58.3826ZM72.63 35.1074C71.9383 35.1074 71.32 34.9433 70.775 34.6149C70.2301 34.2866 69.8004 33.8157 69.486 33.2023C69.1716 32.5888 69.0144 31.856 69.0144 31.0039C69.0144 30.1475 69.1716 29.4125 69.486 28.7987C69.8004 28.1849 70.2301 27.7133 70.775 27.3838C71.32 27.0544 71.9383 26.8896 72.63 26.8896C73.3217 26.8896 73.9391 27.0544 74.4823 27.3838C75.0255 27.7133 75.4537 28.1849 75.7669 28.7987C76.0802 29.4125 76.2368 30.1475 76.2368 31.0039C76.2368 31.8567 76.0802 32.5898 75.7669 33.2033C75.4537 33.8167 75.0255 34.2874 74.4823 34.6154C73.9391 34.9434 73.3217 35.1074 72.63 35.1074ZM72.63 33.992C73.0856 33.992 73.4933 33.8776 73.8531 33.6487C74.2129 33.4199 74.4973 33.0828 74.7063 32.6374C74.9153 32.192 75.0198 31.6475 75.0198 31.0039C75.0198 30.3538 74.9153 29.8059 74.7063 29.3601C74.4973 28.9144 74.2129 28.5771 73.8531 28.3483C73.4933 28.1195 73.0856 28.0051 72.63 28.0051C72.1721 28.0051 71.7625 28.1202 71.4013 28.3505C71.04 28.5808 70.7547 28.9188 70.5454 29.3645C70.336 29.8103 70.2314 30.3567 70.2314 31.0039C70.2314 31.6475 70.336 32.1913 70.5454 32.6352C70.7547 33.0792 71.04 33.4163 71.4013 33.6465C71.7625 33.8768 72.1721 33.992 72.63 33.992ZM78.6076 35V26.9971H81.4745C82.0924 26.9971 82.6066 27.1039 83.0172 27.3176C83.4277 27.5313 83.7354 27.8274 83.9402 28.2059C84.145 28.5845 84.2475 29.0199 84.2475 29.5122C84.2475 30.0059 84.1446 30.4379 83.9388 30.8083C83.733 31.1787 83.4244 31.4663 83.0131 31.6713C82.6017 31.8762 82.0858 31.9786 81.4653 31.9786H79.3103V30.9308H81.3464C81.7393 30.9308 82.0572 30.8743 82.3 30.7614C82.5428 30.6485 82.7213 30.4863 82.8356 30.2747C82.9499 30.0631 83.0071 29.8089 83.0071 29.5122C83.0071 29.2097 82.9499 28.9493 82.8356 28.7312C82.7213 28.5131 82.542 28.3444 82.2978 28.225C82.0535 28.1055 81.7334 28.0458 81.3376 28.0458H79.835V35H78.6076ZM83.1569 35L81.2195 31.3834H82.5777L84.5512 35H83.1569ZM89.218 35H87.238V33.9275H89.1497C89.7556 33.9275 90.2593 33.8142 90.6608 33.5876C91.0622 33.3609 91.3628 33.0286 91.5625 32.5905C91.7621 32.1524 91.862 31.6176 91.862 30.9863C91.862 30.3602 91.7625 29.8302 91.5637 29.3966C91.3649 28.9629 91.0699 28.6333 90.6789 28.4078C90.2879 28.1823 89.8007 28.0696 89.2173 28.0696H87.1969V26.9971H89.2959C90.0842 26.9971 90.759 27.1566 91.3203 27.4756C91.8816 27.7946 92.3126 28.2523 92.6135 28.8489C92.9144 29.4454 93.0649 30.1579 93.0649 30.9863C93.0649 31.82 92.9138 32.5365 92.6118 33.136C92.3098 33.7354 91.8718 34.1959 91.298 34.5176C90.7241 34.8392 90.0308 35 89.218 35ZM87.8424 26.9971V35H86.615V26.9971H87.8424ZM95.4335 35V26.9971H100.471V28.0522H96.6609V30.4363H100.201V31.4836H96.6609V33.9449H100.507V35H95.4335ZM102.947 35V26.9971H105.814C106.432 26.9971 106.946 27.1039 107.356 27.3176C107.767 27.5313 108.075 27.8274 108.279 28.2059C108.484 28.5845 108.587 29.0199 108.587 29.5122C108.587 30.0059 108.484 30.4379 108.278 30.8083C108.072 31.1787 107.764 31.4663 107.352 31.6713C106.941 31.8762 106.425 31.9786 105.805 31.9786H103.65V30.9308H105.686C106.079 30.9308 106.396 30.8743 106.639 30.7614C106.882 30.6485 107.061 30.4863 107.175 30.2747C107.289 30.0631 107.346 29.8089 107.346 29.5122C107.346 29.2097 107.289 28.9493 107.175 28.7312C107.061 28.5131 106.881 28.3444 106.637 28.225C106.393 28.1055 106.073 28.0458 105.677 28.0458H104.174V35H102.947ZM107.496 35L105.559 31.3834H106.917L108.89 35H107.496ZM113.641 35.1319C113.043 35.1319 112.524 35.037 112.083 34.8473C111.642 34.6576 111.297 34.3867 111.049 34.0349C110.8 33.683 110.663 33.2633 110.636 32.7757H111.866C111.892 33.0662 111.987 33.3066 112.15 33.4969C112.314 33.6872 112.526 33.829 112.786 33.9223C113.046 34.0156 113.329 34.0622 113.635 34.0622C113.974 34.0622 114.275 34.0086 114.54 33.9014C114.805 33.7942 115.013 33.6433 115.166 33.4488C115.318 33.2542 115.395 33.0291 115.395 32.7733C115.395 32.5399 115.328 32.349 115.195 32.2004C115.063 32.0519 114.882 31.9282 114.654 31.8295C114.425 31.7309 114.167 31.6437 113.879 31.5682L112.941 31.3126C112.285 31.1358 111.774 30.8752 111.408 30.5309C111.041 30.1865 110.857 29.7407 110.857 29.1933C110.857 28.7318 110.982 28.328 111.231 27.9819C111.481 27.6358 111.819 27.3672 112.247 27.1762C112.675 26.9852 113.157 26.8896 113.694 26.8896C114.243 26.8896 114.725 26.9855 115.142 27.1772C115.558 27.3688 115.886 27.6314 116.124 27.9647C116.362 28.2981 116.488 28.6777 116.5 29.1036H115.306C115.265 28.7365 115.095 28.4526 114.796 28.2518C114.498 28.0509 114.122 27.9505 113.668 27.9505C113.346 27.9505 113.066 28.0015 112.827 28.1033C112.589 28.2051 112.404 28.3444 112.275 28.5212C112.145 28.698 112.08 28.8998 112.08 29.1266C112.08 29.3782 112.158 29.5822 112.314 29.7388C112.469 29.8953 112.659 30.0188 112.883 30.1092C113.107 30.1996 113.321 30.2716 113.524 30.3253L114.299 30.531C114.554 30.5948 114.817 30.6816 115.087 30.7915C115.356 30.9015 115.607 31.0432 115.837 31.2168C116.067 31.3904 116.253 31.6054 116.395 31.8617C116.537 32.1181 116.608 32.4263 116.608 32.7865C116.608 33.2394 116.491 33.6428 116.258 33.9966C116.025 34.3504 115.687 34.6281 115.245 34.8296C114.802 35.0312 114.268 35.1319 113.641 35.1319Z" fill="#43474C"/>
<path d="M35.7009 48.7188V72H32.1688V51.9525H32.0125L26.4831 55.9922V52.4109L31.5737 48.7188H35.7009ZM40.21 72V69.4291L48.1159 61.255C48.928 60.4 49.6065 59.6441 50.1513 58.9873C50.696 58.3306 51.1082 57.6992 51.3877 57.0933C51.6671 56.4873 51.8069 55.84 51.8069 55.1512C51.8069 54.3781 51.6259 53.7101 51.2639 53.1473C50.9019 52.5845 50.412 52.1522 49.7942 51.8505C49.1764 51.5487 48.4733 51.3978 47.685 51.3978C46.854 51.3978 46.1317 51.5662 45.5181 51.9031C44.9046 52.24 44.4306 52.7157 44.0961 53.3301C43.7616 53.9446 43.5944 54.6697 43.5944 55.5053H40.1825C40.1825 54.0834 40.5091 52.8395 41.1624 51.7734C41.8156 50.7074 42.7116 49.8797 43.8503 49.2903C44.9891 48.7009 46.2886 48.4062 47.7491 48.4062C49.2207 48.4062 50.5171 48.6967 51.6383 49.2777C52.7594 49.8586 53.6369 50.6476 54.2706 51.6445C54.9044 52.6415 55.2212 53.77 55.2212 55.03C55.2212 55.8831 55.0641 56.7156 54.7498 57.5275C54.4356 58.3394 53.8804 59.2561 53.0844 60.2778C52.2883 61.2995 51.1662 62.5404 49.7181 64.0006L45.1475 68.7728V68.9547H55.5865V72H40.21Z" fill="#162839"/>
<rect x="213.679" y="30.685" width="43.9815" height="45.63" rx="21.9908" fill="#EFEDEF"/>
<path d="M231.679 64.305C231.129 64.305 230.658 64.1092 230.266 63.7175C229.875 63.3258 229.679 62.855 229.679 62.305C229.679 61.755 229.875 61.2842 230.266 60.8925C230.658 60.5008 231.129 60.305 231.679 60.305C232.229 60.305 232.7 60.5008 233.091 60.8925C233.483 61.2842 233.679 61.755 233.679 62.305C233.679 62.855 233.483 63.3258 233.091 63.7175C232.7 64.1092 232.229 64.305 231.679 64.305ZM241.679 64.305C241.129 64.305 240.658 64.1092 240.266 63.7175C239.875 63.3258 239.679 62.855 239.679 62.305C239.679 61.755 239.875 61.2842 240.266 60.8925C240.658 60.5008 241.129 60.305 241.679 60.305C242.229 60.305 242.7 60.5008 243.091 60.8925C243.483 61.2842 243.679 61.755 243.679 62.305C243.679 62.855 243.483 63.3258 243.091 63.7175C242.7 64.1092 242.229 64.305 241.679 64.305ZM230.829 48.305L233.229 53.305H240.229L242.979 48.305H230.829ZM229.879 46.305H244.629C245.012 46.305 245.304 46.4758 245.504 46.8175C245.704 47.1592 245.712 47.505 245.529 47.855L241.979 54.255C241.795 54.5883 241.55 54.8467 241.241 55.03C240.933 55.2133 240.595 55.305 240.229 55.305H232.779L231.679 57.305H243.679V59.305H231.679C230.929 59.305 230.362 58.9758 229.979 58.3175C229.595 57.6592 229.579 57.005 229.929 56.355L231.279 53.905L227.679 46.305H225.679V44.305H228.929L229.879 46.305ZM233.229 53.305H240.229H233.229Z" fill="#162839"/>
</svg>
