<svg width="283" height="107" viewBox="0 0 283 107" fill="none" xmlns="http://www.w3.org/2000/svg">
<rect x="0.5" y="0.5" width="281.66" height="106" rx="11.5" fill="#FBF9FA"/>
<rect x="0.5" y="0.5" width="281.66" height="106" rx="11.5" stroke="#C4C6CD"/>
<path d="M27.4435 35L25.2735 26.9971H26.5649L27.7194 31.5814C27.79 31.866 27.8561 32.1609 27.9176 32.466C27.9791 32.7712 28.039 33.0791 28.0972 33.3898C28.1555 33.7005 28.211 34.0117 28.2637 34.3234H28.085C28.1426 34.0117 28.201 33.7005 28.2602 33.3898C28.3195 33.0791 28.3821 32.7712 28.4482 32.466C28.5142 32.1609 28.5832 31.866 28.6551 31.5814L29.8442 26.9971H31.1861L32.3663 31.5814C32.4412 31.866 32.5109 32.1609 32.5755 32.466C32.6401 32.7712 32.7035 33.0791 32.7656 33.3898C32.8278 33.7005 32.8877 34.0117 32.9452 34.3234H32.7524C32.8087 34.0117 32.8658 33.7005 32.9238 33.3898C32.9817 33.0791 33.043 32.7712 33.1078 32.466C33.1726 32.1609 33.2385 31.866 33.3055 31.5814L34.4566 26.9971H35.7568L33.578 35H32.1628L30.8922 30.2555C30.7943 29.8842 30.7043 29.4806 30.6223 29.0447C30.5403 28.6088 30.4566 28.1283 30.3714 27.603H30.6501C30.561 28.1048 30.4796 28.5688 30.4061 28.9953C30.3325 29.4217 30.2405 29.8418 30.1302 30.2555L28.8631 35H27.4435ZM39.0252 26.9971V35H37.7978V26.9971H39.0252ZM44.3616 35.1319C43.7638 35.1319 43.2444 35.037 42.8034 34.8473C42.3623 34.6576 42.0176 34.3867 41.7693 34.0349C41.521 33.683 41.3833 33.2633 41.3563 32.7757H42.5864C42.6124 33.0662 42.7072 33.3066 42.8708 33.4969C43.0343 33.6872 43.2462 33.829 43.5066 33.9223C43.767 34.0156 44.0501 34.0622 44.3558 34.0622C44.6943 34.0622 44.9958 34.0086 45.2606 33.9014C45.5253 33.7942 45.7339 33.6433 45.8864 33.4488C46.0389 33.2542 46.1152 33.0291 46.1152 32.7733C46.1152 32.5399 46.0488 32.349 45.916 32.2004C45.7832 32.0519 45.6027 31.9282 45.3744 31.8295C45.1461 31.7309 44.8877 31.6437 44.5993 31.5682L43.6615 31.3126C43.0061 31.1358 42.4949 30.8752 42.1282 30.5309C41.7614 30.1865 41.578 29.7407 41.578 29.1933C41.578 28.7318 41.7026 28.328 41.9519 27.9819C42.2012 27.6358 42.5398 27.3672 42.9678 27.1762C43.3957 26.9852 43.8781 26.8896 44.415 26.8896C44.9633 26.8896 45.4457 26.9855 45.8622 27.1772C46.2788 27.3688 46.6063 27.6314 46.8447 27.9647C47.0831 28.2981 47.2085 28.6777 47.2209 29.1036H46.0265C45.9852 28.7365 45.8152 28.4526 45.5168 28.2518C45.2183 28.0509 44.8423 27.9505 44.3886 27.9505C44.0667 27.9505 43.7865 28.0015 43.5478 28.1033C43.3092 28.2051 43.125 28.3444 42.9953 28.5212C42.8656 28.698 42.8008 28.8998 42.8008 29.1266C42.8008 29.3782 42.8786 29.5822 43.0342 29.7388C43.1898 29.8953 43.3796 30.0188 43.6035 30.1092C43.8275 30.1996 44.0413 30.2716 44.2449 30.3253L45.0191 30.531C45.2746 30.5948 45.5373 30.6816 45.8072 30.7915C46.0771 30.9015 46.3272 31.0432 46.5574 31.2168C46.7876 31.3904 46.9736 31.6054 47.1155 31.8617C47.2573 32.1181 47.3283 32.4263 47.3283 32.7865C47.3283 33.2394 47.2117 33.6428 46.9785 33.9966C46.7453 34.3504 46.4076 34.6281 45.9653 34.8296C45.523 35.0312 44.9885 35.1319 44.3616 35.1319ZM49.6608 35V26.9971H50.8882V30.3806H54.8506V26.9971H56.078V35H54.8506V31.4357H50.8882V35H49.6608ZM58.7318 35V26.9971H59.9592V33.9449H63.5801V35H58.7318ZM67.0589 26.9971V35H65.8315V26.9971H67.0589ZM72.3953 35.1319C71.7975 35.1319 71.2781 35.037 70.837 34.8473C70.3959 34.6576 70.0513 34.3867 69.803 34.0349C69.5547 33.683 69.417 33.2633 69.3899 32.7757H70.62C70.6461 33.0662 70.7409 33.3066 70.9044 33.4969C71.068 33.6872 71.2799 33.829 71.5403 33.9223C71.8007 34.0156 72.0838 34.0622 72.3895 34.0622C72.7279 34.0622 73.0295 34.0086 73.2942 33.9014C73.559 33.7942 73.7676 33.6433 73.9201 33.4488C74.0726 33.2542 74.1488 33.0291 74.1488 32.7733C74.1488 32.5399 74.0825 32.349 73.9497 32.2004C73.8169 32.0519 73.6364 31.9282 73.4081 31.8295C73.1798 31.7309 72.9214 31.6437 72.633 31.5682L71.6952 31.3126C71.0397 31.1358 70.5286 30.8752 70.1618 30.5309C69.795 30.1865 69.6117 29.7407 69.6117 29.1933C69.6117 28.7318 69.7363 28.328 69.9856 27.9819C70.2349 27.6358 70.5735 27.3672 71.0014 27.1762C71.4294 26.9852 71.9118 26.8896 72.4487 26.8896C72.9969 26.8896 73.4794 26.9855 73.8959 27.1772C74.3125 27.3688 74.6399 27.6314 74.8783 27.9647C75.1167 28.2981 75.2421 28.6777 75.2545 29.1036H74.0602C74.0188 28.7365 73.8489 28.4526 73.5504 28.2518C73.252 28.0509 72.8759 27.9505 72.4222 27.9505C72.1004 27.9505 71.8202 28.0015 71.5815 28.1033C71.3428 28.2051 71.1587 28.3444 71.029 28.5212C70.8993 28.698 70.8344 28.8998 70.8344 29.1266C70.8344 29.3782 70.9122 29.5822 71.0679 29.7388C71.2235 29.8953 71.4133 30.0188 71.6372 30.1092C71.8611 30.1996 72.0749 30.2716 72.2786 30.3253L73.0528 30.531C73.3083 30.5948 73.5709 30.6816 73.8409 30.7915C74.1108 30.9015 74.3608 31.0432 74.591 31.2168C74.8212 31.3904 75.0073 31.6054 75.1491 31.8617C75.291 32.1181 75.3619 32.4263 75.3619 32.7865C75.3619 33.2394 75.2454 33.6428 75.0122 33.9966C74.779 34.3504 74.4413 34.6281 73.999 34.8296C73.5567 35.0312 73.0221 35.1319 72.3953 35.1319ZM77.2302 28.0522V26.9971H83.4405V28.0522H80.9535V35H79.7261V28.0522H77.2302ZM90.7312 26.9971V35H89.5038V26.9971H90.7312ZM92.9811 28.0522V26.9971H99.1913V28.0522H96.7043V35H95.4769V28.0522H92.9811ZM101.442 35V26.9971H106.479V28.0522H102.669V30.4363H106.21V31.4836H102.669V33.9449H106.515V35H101.442ZM108.955 35V26.9971H110.761L112.507 31.5877C112.556 31.7232 112.612 31.8956 112.675 32.1047C112.738 32.3139 112.803 32.5402 112.871 32.7836C112.939 33.0271 113.004 33.2669 113.066 33.5031C113.127 33.7393 113.18 33.9525 113.225 34.1428H112.967C113.015 33.9613 113.069 33.7539 113.13 33.5207C113.192 33.2875 113.256 33.0484 113.325 32.8034C113.393 32.5585 113.459 32.3293 113.522 32.1157C113.586 31.9022 113.643 31.7262 113.692 31.5877L115.414 26.9971H117.225V35H116.007V30.6951C116.007 30.5271 116.009 30.3293 116.012 30.1016C116.015 29.8739 116.019 29.6321 116.026 29.3761C116.032 29.1202 116.038 28.861 116.044 28.5985C116.05 28.336 116.055 28.0846 116.058 27.8442H116.15C116.077 28.108 115.999 28.3779 115.915 28.6539C115.831 28.9299 115.748 29.197 115.667 29.4551C115.585 29.7132 115.508 29.9492 115.435 30.1633C115.362 30.3773 115.3 30.5546 115.249 30.6951L113.615 35H112.563L110.904 30.6951C110.853 30.5575 110.792 30.3839 110.722 30.1743C110.652 29.9647 110.575 29.7323 110.493 29.4771C110.411 29.222 110.327 28.9549 110.241 28.676C110.156 28.397 110.07 28.1198 109.985 27.8442H110.092C110.098 28.0641 110.104 28.3023 110.11 28.5589C110.116 28.8155 110.121 29.0739 110.126 29.3343C110.131 29.5946 110.136 29.8423 110.14 30.0774C110.145 30.3124 110.147 30.5183 110.147 30.6951V35H108.955ZM122.561 35.1319C121.963 35.1319 121.443 35.037 121.002 34.8473C120.561 34.6576 120.217 34.3867 119.968 34.0349C119.72 33.683 119.582 33.2633 119.555 32.7757H120.785C120.811 33.0662 120.906 33.3066 121.07 33.4969C121.233 33.6872 121.445 33.829 121.706 33.9223C121.966 34.0156 122.249 34.0622 122.555 34.0622C122.893 34.0622 123.195 34.0086 123.46 33.9014C123.724 33.7942 123.933 33.6433 124.085 33.4488C124.238 33.2542 124.314 33.0291 124.314 32.7733C124.314 32.5399 124.248 32.349 124.115 32.2004C123.982 32.0519 123.802 31.9282 123.573 31.8295C123.345 31.7309 123.087 31.6437 122.798 31.5682L121.861 31.3126C121.205 31.1358 120.694 30.8752 120.327 30.5309C119.96 30.1865 119.777 29.7407 119.777 29.1933C119.777 28.7318 119.902 28.328 120.151 27.9819C120.4 27.6358 120.739 27.3672 121.167 27.1762C121.595 26.9852 122.077 26.8896 122.614 26.8896C123.162 26.8896 123.645 26.9855 124.061 27.1772C124.478 27.3688 124.805 27.6314 125.044 27.9647C125.282 28.2981 125.408 28.6777 125.42 29.1036H124.226C124.184 28.7365 124.014 28.4526 123.716 28.2518C123.417 28.0509 123.041 27.9505 122.588 27.9505C122.266 27.9505 121.986 28.0015 121.747 28.1033C121.508 28.2051 121.324 28.3444 121.194 28.5212C121.065 28.698 121 28.8998 121 29.1266C121 29.3782 121.078 29.5822 121.233 29.7388C121.389 29.8953 121.579 30.0188 121.803 30.1092C122.027 30.1996 122.24 30.2716 122.444 30.3253L123.218 30.531C123.474 30.5948 123.736 30.6816 124.006 30.7915C124.276 30.9015 124.526 31.0432 124.756 31.2168C124.987 31.3904 125.173 31.6054 125.315 31.8617C125.456 32.1181 125.527 32.4263 125.527 32.7865C125.527 33.2394 125.411 33.6428 125.178 33.9966C124.944 34.3504 124.607 34.6281 124.164 34.8296C123.722 35.0312 123.187 35.1319 122.561 35.1319Z" fill="#43474C"/>
<path d="M27.2488 72V69.4291L35.1547 61.255C35.9668 60.4 36.6452 59.6441 37.19 58.9873C37.7348 58.3306 38.1469 57.6992 38.4264 57.0933C38.7059 56.4873 38.8456 55.84 38.8456 55.1512C38.8456 54.3781 38.6646 53.7101 38.3027 53.1473C37.9407 52.5845 37.4508 52.1522 36.833 51.8505C36.2152 51.5487 35.5121 51.3978 34.7237 51.3978C33.8927 51.3978 33.1704 51.5662 32.5569 51.9031C31.9433 52.24 31.4693 52.7157 31.1348 53.3301C30.8004 53.9446 30.6331 54.6697 30.6331 55.5053H27.2213C27.2213 54.0834 27.5479 52.8395 28.2011 51.7734C28.8543 50.7074 29.7503 49.8797 30.8891 49.2903C32.0278 48.7009 33.3274 48.4062 34.7878 48.4062C36.2595 48.4062 37.5559 48.6967 38.677 49.2777C39.7982 49.8586 40.6756 50.6476 41.3094 51.6445C41.9431 52.6415 42.26 53.77 42.26 55.03C42.26 55.8831 42.1028 56.7156 41.7886 57.5275C41.4743 58.3394 40.9192 59.2561 40.1231 60.2778C39.3271 61.2995 38.205 62.5404 36.7569 64.0006L32.1862 68.7728V68.9547H42.6253V72H27.2488ZM45.6725 67.4653V64.5963L55.7138 48.7188H57.9859V52.9494H56.5438L49.3928 64.255V64.4425H63.1853V67.4653H45.6725ZM56.6903 72V66.6059L56.7313 65.2825V48.7188H60.1134V72H56.6903Z" fill="#162839"/>
<rect x="213.66" y="31.51" width="44" height="43.98" rx="21.99" fill="#EFEDEF"/>
<path d="M235.66 63.48L234.21 62.18C232.527 60.6633 231.135 59.355 230.035 58.255C228.935 57.155 228.06 56.1675 227.41 55.2925C226.76 54.4175 226.306 53.6133 226.048 52.88C225.789 52.1467 225.66 51.3967 225.66 50.63C225.66 49.0633 226.185 47.755 227.235 46.705C228.285 45.655 229.593 45.13 231.16 45.13C232.027 45.13 232.852 45.3133 233.635 45.68C234.418 46.0467 235.093 46.5633 235.66 47.23C236.227 46.5633 236.902 46.0467 237.685 45.68C238.468 45.3133 239.293 45.13 240.16 45.13C241.727 45.13 243.035 45.655 244.085 46.705C245.135 47.755 245.66 49.0633 245.66 50.63C245.66 51.3967 245.531 52.1467 245.273 52.88C245.014 53.6133 244.56 54.4175 243.91 55.2925C243.26 56.1675 242.385 57.155 241.285 58.255C240.185 59.355 238.793 60.6633 237.11 62.18L235.66 63.48Z" fill="#162839"/>
</svg>
